<svg version="1.2" xmlns="http://www.w3.org/2000/svg" viewBox="0 0 4000 4000" width="4000" height="4000">
	<title>3700_9_08-ai</title>
	<style>
		.s0 { fill: #ffffff } 
		.s1 { fill: #371a45 } 
		.s2 { fill: #22a7f0 } 
		.s3 { fill: #220f2d } 
		.s4 { fill: #ffe266 } 
		.s5 { fill: #3e8dff } 
		.s6 { fill: #6b184e } 
		.s7 { fill: #db2c2c } 
	</style>
	<g id="_Artboards_">
	</g>
	<g id="Layer 1">
		<g id="&lt;Group&gt;">
			<g id="&lt;Group&gt;">
			</g>
			<g id="&lt;Group&gt;">
				<g id="&lt;Group&gt;">
					<g id="&lt;Group&gt;">
						<path id="&lt;Path&gt;" class="s0" d="m2422.1 1736.8c0 0 263.9-20.2 341.5 33.5 140 96.9 179.2 621 70.5 806.8-79.7 136.4-568.5 66-568.5 66"/>
					</g>
					<g id="&lt;Group&gt;" style="opacity: .3">
						<path id="&lt;Path&gt;" class="s1" d="m2834.1 2577.1c-79.7 136.4-568.5 66-568.5 66l42.8-248.2c106.3 12.6 471.5 46.5 539.5-69.7 21.2-36.2 36.8-85.3 47-141.6 7.6 153.1-11.1 308.6-60.8 393.5z"/>
					</g>
					<g id="&lt;Group&gt;">
						<path id="&lt;Path&gt;" class="s1" d="m2526.4 2676.5q-3.3 0-6.5 0c-131.7-0.6-255.2-18.1-256.5-18.3-8.3-1.2-14.1-8.9-12.9-17.3 1.2-8.3 9-14.1 17.3-12.9 133.1 19.1 492 45.9 553.2-58.6 106.6-182.4 63.4-696.9-66-786.6-60-41.5-259.8-36.3-331.8-30.8-8.4 0.6-15.7-5.6-16.4-14.1-0.6-8.4 5.7-15.7 14.1-16.3 11-0.9 270.3-20 351.4 36.1 68.8 47.6 119.3 190.2 135 381.4 12 145.4 2.5 338.8-60 445.7-35.6 60.9-143.6 91.7-320.9 91.7z"/>
					</g>
					<g id="&lt;Group&gt;">
						<path id="&lt;Path&gt;" class="s0" d="m2882.2 2201.9l-135.5 10.5c-12.1 0.9-22.1 9.9-24.2 21.8-7.8 43.8-20.6 145.7 22 179.3 35.4 27.9 92.7 24.5 126.2-4 37.5-31.9 41-131.9 40.3-181.4-0.3-15.4-13.4-27.4-28.8-26.2z"/>
					</g>
					<g id="&lt;Group&gt;" style="opacity: .3">
						<path id="&lt;Path&gt;" class="s1" d="m2722.5 2234.2c-7.8 43.8-20.6 145.8 22 179.3 35.4 27.9 92.7 24.5 126.3-4 23-19.7 33.2-65 37.4-108.6-6 21.8-15.6 39.5-27.5 51.1-68.1 66.5-119.3-11.6-119.3-11.6 0 0-8.8 19-15.9 20.1-29.5 4.5-23.6-87.8-19.4-135.5-1.8 2.7-3 5.8-3.6 9.2z"/>
					</g>
					<g id="&lt;Group&gt;">
						<path id="&lt;Compound Path&gt;" fill-rule="evenodd" class="s1" d="m2804 2448c-25 0-49.8-7.4-68.9-22.5-47.5-37.4-37.7-137.6-27.6-194 3.3-18.7 19-32.9 38-34.4l135.6-10.4c11.5-0.9 23 3 31.5 10.8 8.5 7.8 13.5 18.8 13.6 30.3 1 69.7-6 159.7-45.6 193.3-21 17.9-48.9 26.9-76.6 26.9zm79.4-230.9l-135.5 10.5c-5.2 0.4-9.5 4.2-10.4 9.3-14.8 83.3-8.7 144.8 16.5 164.6 28.8 22.8 77.8 21.1 106.8-3.7 23.1-19.6 36.2-83 34.9-169.5 0-3.2-1.4-6.1-3.7-8.3-2.3-2.1-5.4-3.2-8.6-2.9z"/>
					</g>
					<g id="&lt;Group&gt;">
						<path id="&lt;Path&gt;" class="s1" d="m2805.8 2444.5c-3-1.7-4.5-2.9-6.5-4.4-1.8-1.4-3.6-2.8-5.2-4.3q-5-4.6-9.2-9.6c-5.6-6.7-10.6-13.8-14.5-21.3-8-15-12.8-31.2-15.2-47.3-1-8.1-1.9-16.2-2-24.3-0.4-8.1 0-15.8 0.3-23.7 0.4-7.9 1-15.8 2.1-23.7 1.2-8 2.3-15.6 5.2-23.9 0.8-2.1 3.1-3.2 5.2-2.4 1.9 0.7 3 2.7 2.5 4.7l-0.1 0.5c-1.6 6.5-2.1 14.5-2.4 22-0.2 7.5-0.1 15.1 0.3 22.7 0.9 15.4 2.5 30.3 6.1 44.6 3.6 14.3 9.3 27.8 17.2 39.4 3.7 6 8.4 11.2 13.2 15.9 2.4 2.4 5 4.6 7.7 6.5 1.3 1 2.6 1.8 3.9 2.7 1.2 0.7 3 1.6 3.4 1.8 7.2 2.2 11.2 9.8 9 17-2.2 7.2-9.8 11.2-17 9q-1.4-0.4-2.7-1.1z"/>
					</g>
					<g id="&lt;Group&gt;">
						<path id="&lt;Path&gt;" class="s1" d="m2581.1 1831.7c-5.8 0-11.3-3.3-13.9-8.9-3.5-7.7-0.1-16.8 7.5-20.3 123.8-56.6 199.6-39.7 202.8-39 8.2 2 13.3 10.2 11.3 18.4-1.9 8.2-10.1 13.3-18.3 11.4-0.9-0.3-70-14.8-183.1 37-2 0.9-4.2 1.4-6.3 1.4z"/>
					</g>
				</g>
				<g id="&lt;Group&gt;">
					<path id="&lt;Path&gt;" class="s0" d="m1882.2 1833.2c0 0-121.2 363.9-453.8 481.4v223.3h453.8z"/>
				</g>
				<g id="&lt;Group&gt;">
					<path id="&lt;Path&gt;" class="s0" d="m1882.2 1833.2v704.6h-453.8v-223.2c332.6-117.5 453.8-481.4 453.8-481.4z"/>
				</g>
				<g id="&lt;Group&gt;" style="opacity: .3">
					<path id="&lt;Path&gt;" class="s1" d="m1882.2 1975.5v562.3h-400.5c292.4-145.2 400.5-562.3 400.5-562.3z"/>
				</g>
				<g id="&lt;Group&gt;">
					<path id="&lt;Compound Path&gt;" fill-rule="evenodd" class="s1" d="m1897.5 2553.1h-484.4v-249.3l10.2-3.6c321.5-113.5 443.3-468.2 444.5-471.8l29.7-89zm-453.9-30.6h423.4v-613.5c-16.8 35.3-41.2 80.7-74.3 129.4-65.6 96.4-179 223.4-349.1 286.9z"/>
				</g>
				<g id="&lt;Group&gt;">
					<path id="&lt;Path&gt;" class="s0" d="m2732.9 2537.8h-989.1c0 0 54.4-273.7 103.9-569.2 7.6-45.8 15.2-92.2 22.4-138.1 60.2-383.2 633.4-133.3 633.4-133.3 0 0 22.4 30.6 53.2 91.1 63.7 125 163.6 377.4 176.2 749.5z"/>
				</g>
				<g id="&lt;Group&gt;">
					<path id="&lt;Compound Path&gt;" fill-rule="evenodd" class="s1" d="m2748.7 2553.1h-1023.5l3.6-18.2c0.7-3.7 73.2-368.9 126.2-706.7 13.8-88.1 55-151.5 122.3-188.5 189.3-103.9 518.4 37.4 532.3 43.5l3.8 1.7 2.4 3.3c2.2 3 54.5 75.4 109.6 216.8 50.6 129.9 113 345.1 122.7 632.3zm-986.3-30.5h954.7c-20.5-499.1-200.9-779.6-223.6-813-37.6-15.6-335.8-134.1-501.5-43.1-58.5 32.2-94.5 88.2-106.8 166.4-46.3 295.4-107.5 611.5-122.8 689.7z"/>
				</g>
				<g id="&lt;Group&gt;">
					<g id="&lt;Group&gt;" style="opacity: .3">
						<path id="&lt;Path&gt;" class="s1" d="m2212.2 2579.3q-2.3 12.4-4.3 24.4 1.9-12 4.3-24.4z"/>
					</g>
					<g id="&lt;Group&gt;" style="opacity: .3">
						<path id="&lt;Path&gt;" class="s1" d="m1835.1 2215.4c-9.3 83.4-14.7 155.6-15.8 215.9-1.5-56.1 3.9-128.6 15.8-215.9z"/>
					</g>
					<g id="&lt;Group&gt;">
						<path id="&lt;Path&gt;" class="s0" d="m1718.7 2339.7c1 39.2 33.6 70.1 72.8 69.1 39.2-1 70.1-33.6 69.1-72.8-1-39.2-33.6-70.1-72.8-69.1-39.2 1-70.1 33.6-69.1 72.8z"/>
					</g>
					<g id="&lt;Group&gt;" style="opacity: .3">
						<path id="&lt;Path&gt;" class="s1" d="m1718.7 2339.7c1 39.2 33.6 70.1 72.8 69.1 39.2-1 70.1-33.6 69.1-72.8-0.3-10.8-3-21.1-7.6-30.1-10.8 24.2-34.8 41.5-63.1 42.2-28.3 0.7-53.2-15.2-65.2-38.9-4.1 9.3-6.3 19.7-6 30.5z"/>
					</g>
					<g id="&lt;Group&gt;">
						<path id="&lt;Compound Path&gt;" fill-rule="evenodd" class="s1" d="m1789.6 2421.3c-45 0-82.2-36-83.4-81.3-0.6-22.3 7.6-43.4 22.9-59.6 15.4-16.2 36.1-25.4 58.4-26 22.3-0.5 43.4 7.6 59.6 22.9 16.2 15.4 25.4 36.1 26 58.4 1.2 46-35.3 84.4-81.3 85.6q-1.1 0-2.2 0zm0.1-141.9q-0.8 0-1.6 0c-15.6 0.4-30.1 6.9-40.9 18.2-10.7 11.3-16.4 26.2-16 41.8 0.8 32.2 27.9 57.6 60 56.9 32.2-0.8 57.7-27.7 56.9-60-0.4-15.6-6.9-30.1-18.2-40.8-11-10.4-25.2-16.1-40.2-16.1z"/>
					</g>
					<g id="&lt;Group&gt;">
						<g id="&lt;Group&gt;" style="opacity: .3">
							<path id="&lt;Path&gt;" class="s1" d="m1824 2407c12.1-79.7 14.4-153.5 11.1-219.3-1.6 38-5.2 77.8-11.6 119.3-7.3 48.7-9.6 99.5-5.1 149.4 1.3-16.6 3.2-33.1 5.6-49.4z"/>
						</g>
						<g id="&lt;Group&gt;">
							<path id="&lt;Path&gt;" class="s0" d="m1892.3 2544.4l370.6 19.1c43.9 2.2 81.6-31.8 83.9-75.7l10.1-197.2c2-38.5-23.9-72.2-59.8-81.5-5.1-1.3-10.4-2.1-15.9-2.4l-370.5-19.1c-43.9-2.2-81.7 31.8-83.9 75.7l-8 156.2-2.2 41c-2.2 43.9 31.9 81.7 75.7 83.9z"/>
						</g>
						<g id="&lt;Group&gt;" style="opacity: .3">
							<path id="&lt;Path&gt;" class="s1" d="m1892.3 2544.4l370.6 19.1c43.9 2.2 81.6-31.8 83.9-75.7l10.1-197.2c2-38.5-23.9-72.2-59.8-81.5-21.8 12.9-35.6 21.2-35.6 21.2-26.2 157.3-75.3 233.9-272 227.1-85-3-137.8-18.7-170.7-37.9l-2.2 41c-2.2 43.9 31.9 81.7 75.7 83.9z"/>
						</g>
						<g id="&lt;Group&gt;">
							<path id="&lt;Compound Path&gt;" fill-rule="evenodd" class="s1" d="m2267.1 2578.9q-2.5 0-5-0.2l-370.5-19c-25.3-1.3-48.7-12.5-65.7-31.4-17.1-18.9-25.8-43.2-24.5-68.5l10.1-197.3c2.7-52.4 47.6-92.8 100-90.1l370.5 19c52.4 2.7 92.9 47.5 90.2 99.9l-10.2 197.3c-1.3 25.3-12.4 48.6-31.3 65.7-17.7 15.9-40.1 24.6-63.6 24.6zm-3.4-30.7c35.5 1.9 66-25.6 67.8-61.2l10.2-197.2c1.8-35.6-25.7-66.1-61.3-67.9l-370.5-19c-17.1-0.9-33.7 5-46.5 16.6-12.9 11.6-20.5 27.4-21.4 44.6l-10.1 197.2c-0.9 17.2 5 33.7 16.6 46.6 11.6 12.8 27.5 20.4 44.6 21.3l370.6 19z"/>
						</g>
						<g id="&lt;Group&gt;">
							<path id="&lt;Path&gt;" class="s0" d="m1877.5 2542.2q7.1 1.9 14.8 2.2l370.6 19.1c32.2 1.6 61-16.2 75-43.2 5.1-9.8 8.3-20.8 8.8-32.5l4.6-87.6 1.5-28.9 4.1-80.7c2.3-43.9-31.8-81.7-75.7-83.9l-80-4.1c36.5 8.8 62.9 42.8 61 81.6l-5.5 106.6-4.7 90.7c-2.2 43.9-40 78-83.9 75.7z"/>
						</g>
						<g id="&lt;Group&gt;" style="opacity: .3">
							<path id="&lt;Path&gt;" class="s1" d="m1877.5 2542.2q7.1 1.9 14.8 2.2l370.6 19.1c43.9 2.2 81.6-31.8 83.8-75.7l6.1-116.5c-10.4 20.1-28.4 44.5-55.4 45.8-14.7 0.7-28.7-10.6-40.7-26.3l-4.7 90.7c-2.2 43.9-40 78-83.9 75.7z"/>
						</g>
						<g id="&lt;Group&gt;">
							<path id="&lt;Compound Path&gt;" fill-rule="evenodd" class="s1" d="m2267.1 2578.9q-2.5 0-5-0.2l-370.6-19c-5.9-0.3-11.9-1.2-17.8-2.7l4.6-30 290.6 14.9c17.2 0.9 33.7-5 46.6-16.6 12.8-11.6 20.4-27.4 21.3-44.6l10.1-197.2c1.6-31-19.1-58.8-49.3-66.1l4.4-30.1 80 4.1c25.3 1.3 48.6 12.5 65.7 31.4 17.1 18.9 25.8 43.3 24.5 68.6l-10.2 197.2c-1.3 25.3-12.4 48.6-31.3 65.7-17.7 15.9-40.1 24.6-63.6 24.6zm-30-32l26.6 1.3c17.1 0.9 33.6-5 46.5-16.6 12.9-11.6 20.5-27.4 21.3-44.6l10.2-197.2c0.9-17.2-5-33.7-16.7-46.6-11.6-12.8-27.4-20.4-44.6-21.3l-23.8-1.2c14.2 17.7 22 40.4 20.8 64.4l-10.1 197.2c-1.3 24.7-12 47.6-30.2 64.6z"/>
						</g>
						<g id="&lt;Group&gt;">
							<path id="&lt;Path&gt;" class="s2" d="m2110.9 2377c-0.3 7.3 7.2 66.6 7.2 66.6 0 0 18.7 0.9 41.6 1.9 28.6 1.3 53.2-27.2 54.8-63.8 1.7-36.6-20.1-67.2-48.8-68.5-19.3-0.9-41.5-1.9-41.5-1.9 0 0-12.8 53.8-13.3 65.7z"/>
						</g>
						<g id="&lt;Group&gt;" style="opacity: .3">
							<path id="&lt;Path&gt;" class="s1" d="m2110.9 2377c-0.3 7.3 7.2 66.6 7.2 66.6 0 0 18.7 0.9 41.6 1.9 28.6 1.3 53.2-27.2 54.8-63.8 1.7-36.6-20.1-67.2-48.8-68.5-19.3-0.9-41.5-1.9-41.5-1.9 0 0-12.8 53.8-13.3 65.7z"/>
						</g>
						<g id="&lt;Group&gt;">
							<path id="&lt;Compound Path&gt;" fill-rule="evenodd" class="s1" d="m2161.6 2457q-1.2 0-2.4 0l-28.9-1.4c-13-0.6-23.5-10.3-25.1-23.2-6-49.1-5.8-54.1-5.7-56 0.3-6.9 3.9-25.6 10.7-55.4 2.8-12.5 14.3-21.2 27-20.6l29.1 1.3c17.4 0.8 33.2 10 44.5 25.9 10.7 15 16.1 34.4 15.2 54.6-1.9 41.8-30.6 74.8-64.4 74.8zm-39.3-79.5c0 1 0.2 8.2 5.6 52.1 0.2 1.8 1.7 3.1 3.5 3.2l28.8 1.3c22.4 1 41.5-22.7 42.9-52.9 0.7-15.2-3.2-29.5-10.9-40.4-7.2-10-16.7-15.7-27-16.2l-29-1.3c-1.8-0.1-3.3 1.1-3.7 2.8-9 39.6-10.1 49.3-10.2 51.4zm-11.4-0.5h0.1z"/>
						</g>
						<g id="&lt;Group&gt;">
							<path id="&lt;Path&gt;" class="s2" d="m2069.3 2375.1c-1.6 36.5 20.2 67.2 48.8 68.5 28.7 1.3 53.2-27.2 54.9-63.8 1.6-36.5-20.2-67.2-48.8-68.5-28.6-1.4-53.2 27.2-54.9 63.8z"/>
						</g>
						<g id="&lt;Group&gt;">
							<path id="&lt;Path&gt;" class="s0" d="m2173 2379.8c-0.4 7.6-1.7 14.8-3.9 21.5 0.8-35.6-20.8-65-48.8-66.3-22.7-1-42.8 16.7-51 42.3 0-0.8 0-1.5 0-2.2 1.7-36.6 26.3-65.1 54.9-63.8 28.6 1.3 50.4 31.9 48.8 68.5z"/>
						</g>
						<g id="&lt;Group&gt;" style="opacity: .3">
							<path id="&lt;Path&gt;" class="s1" d="m2173 2379.8c-1.7 36.5-26.2 65.1-54.9 63.8-28.6-1.3-50.4-32-48.8-68.5 0.4-7.1 1.6-13.9 3.5-20.3 7.2 23.2 24.4 39.8 45.3 40.8 23.1 1 43.5-17.3 51.4-43.6 2.7 8.5 3.9 17.9 3.5 27.8z"/>
						</g>
						<g id="&lt;Group&gt;">
							<path id="&lt;Compound Path&gt;" fill-rule="evenodd" class="s1" d="m2120.1 2455.1q-1.3 0-2.5 0c-34.9-1.6-61.6-37.8-59.7-80.5v-0.1c2-42.7 31.8-76.3 66.8-74.7 17.4 0.8 33.3 10 44.6 25.9 10.7 15 16 34.4 15.1 54.6-0.9 20.2-8 39.1-20.1 53.1-12.1 14.1-27.7 21.7-44.2 21.7zm-39.3-79.5c-1.4 30.2 15.6 55.6 37.9 56.6 10.1 0.4 20.3-4.4 28.3-13.8 8.7-10.1 13.8-24 14.5-39.1 0.7-15.2-3.2-29.5-10.9-40.3-7.1-10.1-16.7-15.8-26.9-16.3-22.5-1-41.5 22.7-42.9 52.9z"/>
						</g>
						<g id="&lt;Group&gt;">
							<path id="&lt;Path&gt;" class="s1" d="m2007.6 2560.4q-0.1 0-0.3 0c-6.3-0.2-11.3-5.5-11.1-11.8l3.6-130.8-61.5-43.2 8.8-184.9c0.3-6.4 5.8-11.1 12-10.9 6.3 0.3 11.2 5.6 10.9 12l-8.3 172.3 61.3 43.1-3.9 143c-0.2 6.2-5.3 11.2-11.5 11.2z"/>
						</g>
					</g>
					<g id="&lt;Group&gt;">
						<path id="&lt;Path&gt;" class="s0" d="m2678.6 2287.2c0 0 34.3 27.3 35.8 69.4 1.8 48.7-28.7 68.4-28.7 68.4 0 0-133.2 68.3-347.1 22.9 0 0-62.9-79.5 7.2-124.4 0 0 225.7 31 332.8-36.3z"/>
					</g>
					<g id="&lt;Group&gt;" style="opacity: .3">
						<path id="&lt;Path&gt;" class="s1" d="m2714.4 2356.6c1.8 48.7-28.7 68.4-28.7 68.4 0 0-133.2 68.3-347.1 22.9 0 0-20.7-26.2-25.1-57 1 1.6 1.7 2.3 1.7 2.3 156.3 33.2 269.5 5.7 319.1-11.6 34.5-11.9 57.6-43.2 56.7-78.2q0-0.7 0-1.4c0-0.8 0-1.7-0.2-2.4 10 11.9 22.8 31.8 23.6 57z"/>
					</g>
					<g id="&lt;Group&gt;">
						<path id="&lt;Compound Path&gt;" fill-rule="evenodd" class="s1" d="m2483.5 2478.9c-43.6 0-93.2-4.4-148-16l-5.4-1.2-3.4-4.3c-1.5-1.8-35.8-45.8-28.2-91.3 3.8-22.6 16.9-41.3 39.1-55.5l4.7-3 5.6 0.8c2.2 0.3 221.4 29.4 322.6-34.1l9.2-5.8 8.5 6.8c1.6 1.3 39.8 32.2 41.5 80.8 2 56.6-34.1 80.7-35.7 81.7l-1.3 0.8c-4.2 2.2-80.6 40.3-209.2 40.3zm-135.9-44.7c193.3 39.4 318.8-16.9 330.3-22.3 3.5-2.7 22.6-18.9 21.3-54.7-0.8-23.2-14.2-41.5-22.8-51-104.5 56.7-290.6 37.6-326.8 33.2-12 8.8-18.9 19.3-21 31.8-4.2 25.2 12 52.7 19 63z"/>
					</g>
				</g>
				<g id="&lt;Group&gt;">
					<g id="&lt;Group&gt;" style="opacity: .3">
						<path id="&lt;Path&gt;" class="s1" d="m2556.7 1788.3c-90.8 123.6-227 204.6-375.5 228q-16.4 2.5-32.9 4.2c-30.2 2.9-60.8 3.6-91.6 1.6-25.5-1.6-51.1-4.9-76.6-10-29.7-5.9-59.2-14.2-88.4-25.1-9.6-3.6-19.2-7.4-28.5-11.5q-7.8-3.3-15.5-6.9c7.6-45.8 15.2-92.2 22.4-138.1 60.2-383.2 633.4-133.3 633.4-133.3 0 0 22.4 30.6 53.2 91.1z"/>
					</g>
					<g id="&lt;Group&gt;">
						<path id="&lt;Path&gt;" class="s0" d="m1581.1 1667.7c50 82.4 120.7 152.7 208.2 202.2 17.8 10.1 36.3 19.3 55.5 27.6 9.3 4 18.8 7.8 28.5 11.5 29.2 10.8 58.7 19.1 88.3 25 25.6 5.1 51.2 8.4 76.7 10 30.7 2 61.4 1.4 91.6-1.6q16.5-1.6 32.9-4.2c199.2-31.3 376.2-166.4 451.4-369 110.8-298.4-41.4-630.1-339.8-740.9-57.5-21.3-116.2-32.9-174.4-35.5-6.7-0.4-13.6-0.6-20.4-0.6q-27.4-0.3-54.4 2c-41.7 3.6-82.6 11.7-122 24-39.5 12.2-77.6 28.7-113.5 49q-17.1 9.7-33.6 20.6c-16.4 10.8-32.3 22.5-47.7 35.1-76.5 62.6-138 145.8-174.9 245.2-63.7 171.7-40.4 354.3 47.6 499.6z"/>
						<path id="&lt;Compound Path&gt;" fill-rule="evenodd" class="s1" d="m2074 1946.7q-18 0-35.8-1.1c-26-1.7-51.8-5-76.9-10.1-29.9-5.9-59.7-14.4-88.5-25.1-10.6-4-20-7.8-28.6-11.5-18.8-8.1-37.6-17.4-55.7-27.7-85.5-48.3-157.6-118.4-208.7-202.7-92.1-152-109.5-334.6-47.7-500.9 35.7-96.3 96.3-181.3 175.4-245.9 14.9-12.2 31-24.1 47.8-35.2 10.8-7.1 22.1-14.1 33.7-20.6 36-20.4 74.2-36.9 113.7-49.2 39.8-12.4 81-20.5 122.4-24 17.9-1.5 36.3-2.2 54.5-2 7.3 0 14 0.2 20.5 0.5 59.4 2.7 118.2 14.7 174.9 35.7 298.7 110.9 451.5 444.1 340.6 742.8-72.6 195.8-246 337.6-452.6 370.1-10.9 1.6-22 3.1-33 4.2-18.6 1.8-37.4 2.7-56 2.7zm-491.5-279.8c50.7 83.8 122.5 153.5 207.5 201.6 18 10.2 36.7 19.5 55.4 27.6 8.6 3.7 17.9 7.5 28.4 11.4 28.7 10.7 58.4 19.1 88.1 25 24.9 5 50.7 8.4 76.5 10 30.1 1.9 60.9 1.4 91.3-1.6 11-1.1 22-2.5 32.8-4.2 205.5-32.3 378-173.3 450.2-368 110.3-297.2-41.7-628.6-338.8-739-56.4-20.8-114.9-32.8-173.9-35.4-6.5-0.3-13.1-0.5-20.4-0.6-18.1-0.1-36.4 0.5-54.3 2-41.1 3.6-82.1 11.6-121.7 23.9-39.3 12.2-77.3 28.7-113.1 49-11.5 6.5-22.8 13.4-33.5 20.4-16.7 11.1-32.7 22.9-47.6 35.1-78.6 64.3-138.9 148.8-174.4 244.5-61.4 165.5-44.1 347.1 47.5 498.3z"/>
					</g>
					<g id="&lt;Group&gt;" style="opacity: .3">
						<path id="&lt;Path&gt;" class="s1" d="m2614.2 1569.2c-75.2 202.6-252.2 337.7-451.5 369q-16.3 2.6-32.8 4.2c-30.2 3-60.9 3.6-91.6 1.6-25.5-1.6-51.1-4.8-76.6-10-29.7-5.9-59.2-14.2-88.4-25-9.7-3.7-19.2-7.5-28.5-11.5-19.2-8.3-37.7-17.6-55.5-27.6-87.5-49.5-158.3-119.8-208.2-202.2-27.4-45.3-48.6-94.2-62.8-145.3 49.5 77.6 117.7 143.7 201.2 190.9q26.7 15.2 55.5 27.6c9.3 4.1 18.8 7.9 28.5 11.5 29.2 10.9 58.7 19.2 88.3 25.1 25.6 5.1 51.1 8.4 76.6 10 30.8 1.9 61.5 1.3 91.7-1.6q16.5-1.7 32.8-4.2c199.3-31.3 376.3-166.5 451.5-369.1 43.8-118.2 46.4-241.6 15.1-354.4 93.8 147.1 120.1 334.8 54.7 511z"/>
					</g>
					<g id="&lt;Group&gt;">
						<path id="&lt;Compound Path&gt;" fill-rule="evenodd" class="s1" d="m2073.9 1957q-18.3 0-36.4-1.1c-26.4-1.7-52.7-5.2-78.2-10.3-30.4-6-60.7-14.6-90.1-25.5-10.8-4.1-20.4-7.9-29.2-11.8-19.1-8.2-38.1-17.7-56.5-28.1-87.1-49.2-160.5-120.6-212.5-206.4-93.7-154.7-111.4-340.5-48.5-509.8 36.3-98 98-184.5 178.4-250.2 15.2-12.5 31.6-24.6 48.7-35.9 11-7.2 22.5-14.3 34.3-21 36.6-20.7 75.6-37.6 115.7-50 40.6-12.7 82.5-20.9 124.6-24.5 18.3-1.5 37-2.2 55.5-2 7.4 0 14.3 0.2 21 0.6 60.3 2.6 120.2 14.8 177.8 36.2 304.1 112.9 459.6 452.1 346.8 756.1-73.9 199.3-250.5 343.6-460.7 376.6-11.1 1.7-22.3 3.2-33.5 4.3-19 1.9-38.1 2.8-57.2 2.8zm-482.6-295.4c49.8 82.3 120.3 150.8 203.8 198 17.7 10 36 19.1 54.4 27 8.4 3.7 17.6 7.4 28 11.3 28.1 10.5 57.2 18.7 86.4 24.5 24.5 4.9 49.8 8.2 75.1 9.8 29.6 1.9 59.8 1.4 89.7-1.5 10.8-1.1 21.6-2.5 32.2-4.2 201.8-31.7 371.2-170.2 442.2-361.4 108.3-291.8-41-617.4-332.8-725.7-55.4-20.5-112.8-32.2-170.8-34.8-6.4-0.4-12.9-0.5-19.9-0.6-17.9-0.1-35.8 0.5-53.4 2-40.4 3.4-80.6 11.3-119.5 23.5-38.6 11.9-76 28.1-111.1 48-11.3 6.4-22.4 13.2-32.9 20.1-16.5 10.9-32.2 22.5-46.8 34.5-77.2 63.1-136.4 146.1-171.3 240.1-60.3 162.5-43.3 340.9 46.7 489.4z"/>
					</g>
					<g id="&lt;Group&gt;">
						<path id="&lt;Compound Path&gt;" fill-rule="evenodd" class="s1" d="m2073.9 1960.4q-18.4 0-36.6-1.1c-26.6-1.7-53-5.2-78.7-10.3-30.6-6.1-61.1-14.7-90.6-25.7-10.9-4.1-20.5-8-29.3-11.8-19.2-8.3-38.4-17.9-56.9-28.3-87.6-49.5-161.5-121.3-213.7-207.6-94.3-155.6-112.1-342.5-48.9-512.8 36.6-98.5 98.7-185.5 179.6-251.7 15.2-12.5 31.7-24.7 48.9-36.1 11.1-7.3 22.7-14.4 34.5-21.1 36.9-20.8 76-37.8 116.4-50.3 40.8-12.7 82.9-21 125.3-24.6 18.4-1.6 37.3-2.2 55.9-2.1 7.4 0.1 14.4 0.3 21.1 0.6 60.6 2.7 120.8 15 178.8 36.5 305.9 113.5 462.3 454.7 348.8 760.5-74.4 200.4-251.9 345.6-463.4 378.8-11.1 1.7-22.4 3.2-33.7 4.3-19.1 1.9-38.3 2.8-57.5 2.8zm-479.7-300.6c49.5 81.8 119.6 149.9 202.6 196.8 17.6 9.9 35.8 19 54 26.9 8.4 3.6 17.5 7.3 27.9 11.2 27.9 10.4 56.9 18.6 85.9 24.3 24.3 4.9 49.4 8.2 74.6 9.8 29.5 1.9 59.5 1.4 89.2-1.6 10.7-1 21.5-2.4 32-4 200.6-31.6 368.9-169.2 439.5-359.3 107.6-290-40.8-613.6-330.8-721.3-55-20.4-112.1-32-169.7-34.6-6.4-0.3-12.8-0.5-19.9-0.5-17.8-0.2-35.6 0.4-53 1.9-40.2 3.4-80.1 11.3-118.8 23.3-38.4 11.9-75.5 28-110.4 47.8-11.3 6.4-22.3 13.1-32.7 20-16.4 10.8-32 22.3-46.5 34.2-76.7 62.8-135.6 145.3-170.2 238.7-60 161.5-43.1 338.8 46.3 486.4z"/>
					</g>
					<g id="&lt;Group&gt;">
						<path id="&lt;Path&gt;" class="s1" d="m1673.2 1783.2c348.7 219.3 799.3 29.1 803.9-378.8 3.1-277.6-266.3-494.9-533-480.8-194.2 10.3-379.3 105.2-445.7 410.9 0 0-8.5 139.9 33.7 230.7 42.1 90.8 98.5 172 98.5 172z"/>
					</g>
					<g id="&lt;Group&gt;">
						<path id="&lt;Path&gt;" class="s3" d="m2477.1 1404.4c-4.6 407.9-455.2 598.1-803.9 378.8l-8.6-9.4c374.3 48.3 733.3-191.7 745.6-604.1 42.9 69.1 67.8 149 66.9 234.7z"/>
					</g>
					<g id="&lt;Group&gt;">
						<path id="&lt;Compound Path&gt;" fill-rule="evenodd" class="s1" d="m1985.2 1949.7q-12 0-24.1-0.4l-2.4-0.3c-30.7-6.1-61.2-14.7-90.7-25.7-10.9-4.1-20.5-8-29.3-11.8-19.2-8.3-38.4-17.9-56.9-28.3-87.6-49.5-161.5-121.3-213.7-207.6-94.3-155.6-112.1-342.5-48.9-512.8 36.6-98.5 98.7-185.5 179.6-251.7l1.2-1 1.4-0.7c67.7-35.1 147.2-55.3 236.4-60 159-8.4 325.7 55.6 446.1 171.1 110.6 106.1 170.7 242.8 169.1 384.7-1.7 154.4-58.3 288.9-163.6 389-104.5 99.6-250.7 155.5-404.2 155.5zm-21.8-30.9c153.6 5.6 301.2-47.9 405-146.7 99.1-94.3 152.4-221.3 154.1-367.2 1.5-133.5-55.3-262.2-159.8-362.4-114.4-109.8-272.6-170.6-423.3-162.6-84.2 4.5-159.1 23.3-222.5 55.9-76.1 62.5-134.6 144.7-169 237.6-60 161.5-43.1 338.8 46.3 486.4 49.5 81.8 119.6 149.9 202.6 196.8 17.6 9.9 35.8 19 54 26.9 8.5 3.6 17.5 7.3 27.9 11.2 27.6 10.2 56.1 18.4 84.7 24.1z"/>
					</g>
					<g id="&lt;Group&gt;">
						<path id="&lt;Compound Path&gt;" fill-rule="evenodd" class="s1" d="m1986.6 1890.7c-109.7 0-221.7-31.8-321.5-94.6l-1.7-1.1-45.3-49.1c-2.4-3.4-57.6-83.3-99.9-174.3-43.3-93.2-35.4-232.2-35-238l0.3-2.3c58.1-267.6 212.8-409.9 459.7-422.9 141.9-7.5 290.7 49.5 398.2 152.6 98.7 94.7 152.4 216.8 150.9 343.5-2 183.1-92.6 336.8-248.5 421.8-78.9 43.1-167.3 64.4-257.2 64.4zm-303.6-119.4c172 107.4 381.1 118.2 546.2 28.2 145.9-79.5 230.7-223.6 232.6-395.3 1.3-118.3-48.9-232.3-141.6-321.2-101.4-97.3-241.7-151.2-375.3-144.1-231.2 12.2-376.3 146-431.3 397.6-0.7 13.3-5.8 140.2 32.3 222.2 38.8 83.6 90.6 160 96.6 168.9z"/>
					</g>
					<g id="&lt;Group&gt;">
						<path id="&lt;Path&gt;" class="s0" d="m2731.2 1366.7c12.4 113-43.9 215.1-125.8 228-81.9 12.9-158.4-68.3-170.8-181.3-12.4-113 43.9-215.1 125.8-228 81.9-12.9 158.3 68.3 170.8 181.3z"/>
					</g>
					<g id="&lt;Group&gt;" style="opacity: .3">
						<path id="&lt;Path&gt;" class="s1" d="m2605.4 1594.7c-76.4 12-148.1-57.8-167.5-159 15.2 4.2 31.1 5.3 47.1 2.8 81.9-12.9 177.8-109.8 165.4-222.8-0.9-7.6-41.5-20.2-42.9-27.4 62.3 17.3 113.7 87.6 123.7 178.4 12.4 113-44 215.1-125.8 228z"/>
					</g>
					<g id="&lt;Group&gt;">
						<path id="&lt;Compound Path&gt;" fill-rule="evenodd" class="s1" d="m2588 1611.3c-29.1 0-57.6-10.2-83.5-29.9-46.4-35.5-77.4-96.1-85.1-166.4-13.3-120.8 48.9-230.5 138.6-244.7 35.8-5.6 71.5 4.2 103.2 28.4 46.4 35.5 77.4 96.1 85.1 166.3 13.3 120.9-48.9 230.6-138.6 244.7q-9.9 1.6-19.7 1.6zm-10.5-412q-7.4 0-14.8 1.2c-73.8 11.6-124.5 106.4-112.9 211.2 6.7 61.1 34.1 115.5 73.2 145.4 24.9 19 52.6 26.8 80 22.5 73.8-11.6 124.5-106.4 113-211.2-6.7-61.1-34.1-115.5-73.3-145.4-20.4-15.6-42.7-23.7-65.2-23.7z"/>
					</g>
					<g id="&lt;Group&gt;">
						<path id="&lt;Path&gt;" class="s0" d="m2750.3 1448c-18.2 86.6-85.5 136.3-150.4 110.8-64.9-25.5-102.9-116.4-84.7-203.1 18.1-86.6 85.4-136.2 150.4-110.8 64.9 25.5 102.8 116.4 84.7 203.1z"/>
						<path id="&lt;Compound Path&gt;" fill-rule="evenodd" class="s1" d="m2634.5 1567.1c-11.7 0-23.5-2.3-35.2-6.8-65.5-25.8-103.9-117.7-85.7-204.9 10.2-48.9 36.3-87.8 71.5-106.8 25.9-14 53.9-15.8 81-5.2 65.6 25.8 104 117.7 85.7 204.9-10.2 48.9-36.2 87.8-71.4 106.8-14.8 8-30.3 12-45.9 12zm-3.6-327.3c-15 0-30 3.9-44.3 11.6-34.4 18.6-59.8 56.7-69.9 104.6-17.9 85.8 19.6 176.1 83.8 201.3 26.2 10.3 53.3 8.6 78.3-5 34.4-18.6 59.9-56.7 69.9-104.6 18-85.8-19.6-176.1-83.7-201.3-11.3-4.4-22.7-6.6-34.1-6.6z"/>
					</g>
					<g id="&lt;Group&gt;" style="opacity: .3">
						<path id="&lt;Path&gt;" class="s1" d="m2525.7 1483.3c-10.8-29-13.6-61.1-9.7-92 30.2 64.1 93.8 84.7 147.3 45.2 34.6-25.6 56.9-70.3 63-118.1 1.9 4 3.7 8.3 5.3 12.7 27.5 74 3.6 168.1-53.2 210.1-56.9 42-125.2 16.1-152.7-57.9z"/>
					</g>
					<g id="&lt;Group&gt;">
						<path id="&lt;Compound Path&gt;" fill-rule="evenodd" class="s1" d="m2637.9 1580.8c-21.5 0-42.8-7.6-62.1-22.4-37.5-28.5-63.6-81.1-69.9-140.7-10.8-101.7 36.1-190.4 106.8-202.1 26.7-4.4 53.4 2.9 77.3 21 37.5 28.6 63.6 81.2 69.9 140.8 10.8 101.6-36.2 190.4-106.8 202.1q-7.6 1.3-15.2 1.3zm-10.2-335.9q-5 0-10 0.8c-52.9 8.8-90.2 86-81.5 168.7 5.5 51.5 27.2 96.2 58.1 119.8 17 12.9 35.6 18.2 53.8 15.2 52.9-8.8 90.2-86 81.5-168.8-5.5-51.4-27.2-96.1-58.1-119.7-13.9-10.6-28.9-16-43.8-16z"/>
					</g>
					<g id="&lt;Group&gt;" style="opacity: .7">
						<path id="&lt;Path&gt;" class="s0" d="m2086.4 1017.6c0 0-260 30.5-395.6 188.3q-0.2 0.2-0.4 0.5c-28.5 33.2-47.5 73.6-55.3 116.6-10.3 57-9.1 97.8-6.6 133.7 7.6 109 31.5 158.7 31.5 158.7-66-53.3-105.5-116.3-112.7-207.1q-1.1-13.4-1.2-27.7 0-3.2 0.1-6.5-0.1-0.1 0-0.2c1.2-19.2 3.6-44.5 8.8-72.8 15.7-85.3 55.7-197.8 157.2-255.9 189.9-108.5 382.4-39.6 374.2-27.6z"/>
					</g>
					<g id="&lt;Group&gt;" style="opacity: .7">
						<path id="&lt;Path&gt;" class="s0" d="m2226.2 1297.7c16.1 46.8 61.8 73.6 102.1 59.8 40.2-13.8 59.8-63 43.7-109.9-16.1-46.9-61.8-73.7-102.1-59.9-40.2 13.8-59.8 63.1-43.7 110z"/>
					</g>
					<g id="&lt;Group&gt;" style="opacity: .7">
						<path id="&lt;Path&gt;" class="s0" d="m2323 1439.7c8.2 18.8 28 28.2 44 21.1 16.1-7.1 22.5-28 14.2-46.8-8.3-18.7-28-28.1-44.1-21-16.1 7.1-22.4 28-14.1 46.7z"/>
					</g>
				</g>
				<g id="&lt;Group&gt;">
					<path id="&lt;Path&gt;" class="s1" d="m3463.5 2477.1c-195.4 423.8-770.1 730.7-1448.6 730.7-678.5 0-1253.2-306.9-1448.6-730.7z"/>
				</g>
				<g id="&lt;Group&gt;">
					<g id="&lt;Group&gt;">
						<path id="&lt;Path&gt;" class="s4" d="m2469.7 2949.2l-18 2.8c-3.6 0.5-6.4 3.3-7 7l-2.8 18-2.8-18c-0.5-3.7-3.3-6.5-7-7l-18-2.8 18-2.8c3.7-0.6 6.5-3.4 7-7l2.8-18 2.8 18c0.6 3.6 3.4 6.4 7 7z"/>
					</g>
					<g id="&lt;Group&gt;">
						<path id="&lt;Path&gt;" class="s4" d="m2004.7 2869.2l-18 2.8c-3.6 0.5-6.4 3.3-7 7l-2.8 18-2.8-18c-0.5-3.7-3.3-6.5-7-7l-18-2.8 18-2.8c3.7-0.6 6.5-3.4 7-7l2.8-18 2.8 18c0.6 3.6 3.4 6.4 7 7z"/>
					</g>
					<g id="&lt;Group&gt;">
						<path id="&lt;Path&gt;" class="s4" d="m2177.6 3047.5l-18.1 2.8c-3.6 0.6-6.5 3.4-7.1 7l-2.8 18.2-2.8-18.2c-0.5-3.6-3.4-6.4-7-7l-18.2-2.8 18.2-2.8c3.6-0.6 6.5-3.4 7-7.1l2.8-18.1 2.8 18.1c0.6 3.7 3.5 6.5 7.1 7.1z"/>
					</g>
					<g id="&lt;Group&gt;">
						<path id="&lt;Path&gt;" class="s4" d="m2999.5 2842.7l-24.5 3.8c-4.9 0.8-8.7 4.6-9.5 9.5l-3.7 24.5-3.8-24.5c-0.8-4.9-4.6-8.7-9.5-9.5l-24.5-3.8 24.5-3.7c4.9-0.8 8.7-4.6 9.5-9.5l3.8-24.5 3.7 24.5c0.8 4.9 4.6 8.7 9.5 9.5z"/>
					</g>
					<g id="&lt;Group&gt;">
						<path id="&lt;Path&gt;" class="s4" d="m799 2552.7l-21.2 3.3c-4.2 0.7-7.6 4-8.2 8.3l-3.3 21.2-3.3-21.2c-0.6-4.3-4-7.6-8.2-8.3l-21.3-3.3 21.3-3.2c4.2-0.7 7.6-4 8.2-8.3l3.3-21.2 3.3 21.2c0.6 4.3 4 7.6 8.2 8.3z"/>
					</g>
					<g id="&lt;Group&gt;">
						<path id="&lt;Path&gt;" class="s4" d="m1715 2800l-23 3.6c-4.6 0.7-8.2 4.3-8.9 8.9l-3.6 23-3.5-23c-0.7-4.6-4.3-8.2-8.9-8.9l-23-3.6 23-3.5c4.6-0.7 8.2-4.4 8.9-9l3.5-23 3.6 23c0.7 4.6 4.3 8.3 8.9 9z"/>
					</g>
					<g id="&lt;Group&gt;">
						<path id="&lt;Path&gt;" class="s4" d="m2728.5 2955.2l-21.9 3.3c-4.4 0.7-7.8 4.2-8.5 8.5l-3.4 21.9-3.3-21.9c-0.7-4.3-4.1-7.8-8.5-8.5l-21.9-3.3 21.9-3.4c4.4-0.7 7.8-4.1 8.5-8.5l3.3-21.9 3.4 21.9c0.7 4.4 4.1 7.8 8.5 8.5z"/>
					</g>
					<g id="&lt;Group&gt;">
						<path id="&lt;Path&gt;" class="s4" d="m1394.6 2794.7l-18 2.7c-3.6 0.6-6.5 3.4-7 7l-2.8 18.1-2.8-18.1c-0.6-3.6-3.4-6.4-7-7l-18-2.7 18-2.8c3.6-0.6 6.4-3.4 7-7l2.8-18.1 2.8 18.1c0.5 3.6 3.4 6.4 7 7z"/>
					</g>
					<g id="&lt;Group&gt;">
						<path id="&lt;Path&gt;" class="s4" d="m1441.8 3017.7l-12-13.8c-2.4-2.7-6.3-3.6-9.7-2.1l-16.7 7.2 13.8-12c2.7-2.4 3.6-6.3 2.2-9.6l-7.3-16.7 12 13.7c2.4 2.8 6.3 3.6 9.6 2.2l16.7-7.3-13.7 12c-2.8 2.4-3.6 6.3-2.2 9.7z"/>
					</g>
					<g id="&lt;Group&gt;">
						<path id="&lt;Path&gt;" class="s4" d="m1783.5 3039.8l-20.9 3.2c-4.1 0.7-7.4 3.9-8.1 8.1l-3.2 20.9-3.2-20.9c-0.7-4.2-3.9-7.4-8.1-8.1l-20.9-3.2 20.9-3.2c4.2-0.7 7.4-4 8.1-8.1l3.2-20.9 3.2 20.9c0.7 4.1 4 7.4 8.1 8.1z"/>
					</g>
					<g id="&lt;Group&gt;">
						<path id="&lt;Path&gt;" class="s4" d="m1125.2 2863.4l-18 2.8c-3.6 0.5-6.5 3.4-7 7l-2.8 18-2.8-18c-0.5-3.6-3.4-6.5-7-7l-18-2.8 18-2.8c3.6-0.5 6.5-3.4 7-7l2.8-18 2.8 18c0.5 3.6 3.4 6.5 7 7z"/>
					</g>
					<g id="&lt;Group&gt;">
						<path id="&lt;Path&gt;" class="s4" d="m3267.3 2572.9l-21.3 3.3c-4.3 0.7-7.6 4-8.3 8.3l-3.3 21.3-3.3-21.3c-0.6-4.3-4-7.6-8.3-8.3l-21.3-3.3 21.3-3.3c4.3-0.6 7.7-4 8.3-8.3l3.3-21.3 3.3 21.3c0.7 4.3 4 7.7 8.3 8.3z"/>
					</g>
				</g>
				<g id="&lt;Group&gt;">
					<g id="&lt;Group&gt;">
						<path id="&lt;Path&gt;" class="s0" d="m2835.2 2844h-686.4l34.8-86.5 51.6-128.5 442.7 4.7 101.7 136z"/>
					</g>
					<g id="&lt;Group&gt;">
						<path id="&lt;Compound Path&gt;" fill-rule="evenodd" class="s1" d="m2865.6 2859.3h-739.4l98.8-245.7 460.6 4.9zm-694.3-30.5h633.3l-134.5-179.9-424.6-4.5z"/>
					</g>
					<g id="&lt;Group&gt;">
						<path id="&lt;Path&gt;" class="s1" d="m2741.1 2794.7c-21.1 0.1-42.3-0.3-63.5-0.5l-63.5-1.3c-21.1-0.3-42.3-1.2-63.4-1.7q-31.7-0.7-63.4-0.7c-42.3-0.6-84.6-0.5-127-0.8l-63.5-0.6c-21.1-0.4-42.3-0.5-63.5-1.1 21.2-1.1 42.4-1.7 63.5-2.6l63.5-1.5c42.3-0.8 84.7-0.9 127-0.9q31.8 0.4 63.6 1.4c21.2 0.8 42.3 1.5 63.5 2.8l63.4 3.3c21.1 1.4 42.2 2.6 63.3 4.2z"/>
					</g>
					<g id="&lt;Group&gt;">
						<path id="&lt;Path&gt;" class="s1" d="m2712.8 2748c-19.4 0.2-38.9 0-58.3-0.1l-58.4-0.9c-39-0.6-77.8-2.3-116.7-3.4l-116.6-3.9c-19.4-0.7-38.8-1.2-58.2-0.8-19.5-0.1-38.9 0.1-58.4-0.2 38.8-2.4 77.7-5.3 116.7-4.8 39 0 77.9 1 116.8 2.2 38.9 1.3 77.8 3.2 116.6 5.2l58.3 3c19.4 1.2 38.8 2.2 58.2 3.7z"/>
					</g>
					<g id="&lt;Group&gt;">
						<path id="&lt;Path&gt;" class="s1" d="m2683.6 2707.8c-17.9-0.1-35.7-0.7-53.6-1l-53.5-1.8-107-3.2-107-3.8c-17.8-0.7-35.6-1.2-53.4-1.4-17.9-0.7-35.8-1.1-53.6-1.9 35.7-1.4 71.4-2.6 107.1-2.5 35.8 0 71.5 1 107.2 2.1 35.7 1.3 71.3 2.6 107 5l53.4 3.8c17.8 1.6 35.7 2.9 53.4 4.7z"/>
					</g>
					<g id="&lt;Group&gt;">
						<path id="&lt;Path&gt;" class="s1" d="m2657.4 2669.1c-32.3 3.3-64.9 2-97.3 1.6-32.4-0.7-64.7-1.8-97.1-2.8l-97.1-3.5c-16.2-0.7-32.4-1.3-48.6-1.6-16.1-0.5-32.6-0.4-48.4-1.5l48.4-2.1c16.2-0.5 32.5-0.5 48.7-0.6 32.4 0 64.8 0.9 97.2 1.8 32.4 1.2 64.8 2.5 97.2 4.5 16.2 1 32.3 2 48.5 2.7 16.2 0.9 32.3 1.9 48.5 1.5z"/>
					</g>
				</g>
				<g id="&lt;Group&gt;">
					<path id="&lt;Path&gt;" class="s0" d="m3178.3 2736.5h-686.3l86.5-215 66.1 0.7 376.4 4z"/>
				</g>
				<g id="&lt;Group&gt;">
					<path id="&lt;Path&gt;" class="s0" d="m2089.2 2512.4l-246.8 222.7c0 0 219.9-11.3 322-11 83.2 0.2 361.7 21.5 361.7 21.5l64.7-224.1z"/>
				</g>
				<g id="&lt;Group&gt;" style="opacity: .3">
					<path id="&lt;Path&gt;" class="s1" d="m2779.6 2769.7h-247.1l-2.6 9.2c0 0-248.8-19.1-346.3-21.4l51.6-128.5 442.7 4.7z"/>
				</g>
				<g id="&lt;Group&gt;">
					<path id="&lt;Path&gt;" class="s0" d="m3178.3 2736.5h-686.3l86.5-215 66.1 0.7 376.4 4z"/>
				</g>
				<g id="&lt;Group&gt;">
					<path id="&lt;Compound Path&gt;" fill-rule="evenodd" class="s1" d="m3208.8 2751.8h-739.4l98.8-245.7 460.6 4.9zm-694.3-30.5h633.3l-134.5-179.9-424.7-4.5z"/>
				</g>
				<g id="&lt;Group&gt;">
					<path id="&lt;Path&gt;" class="s1" d="m3084.3 2687.2c-21.2 0.1-42.3-0.3-63.5-0.5l-63.5-1.3c-21.1-0.3-42.3-1.2-63.4-1.7q-31.7-0.6-63.4-0.7c-42.3-0.6-84.7-0.5-127-0.8l-63.5-0.6c-21.1-0.4-42.3-0.5-63.5-1.1 21.2-1.1 42.3-1.7 63.5-2.6l63.5-1.5c42.3-0.8 84.7-0.9 127-0.9q31.8 0.4 63.6 1.4c21.2 0.8 42.3 1.6 63.4 2.8l63.4 3.3c21.2 1.4 42.3 2.6 63.4 4.2z"/>
				</g>
				<g id="&lt;Group&gt;">
					<path id="&lt;Path&gt;" class="s1" d="m3056 2640.5c-19.4 0.2-38.9 0-58.4-0.1l-58.3-0.9c-39-0.6-77.8-2.2-116.7-3.4l-116.6-3.9c-19.4-0.7-38.8-1.2-58.3-0.8-19.4-0.1-38.9 0.1-58.3-0.2 38.8-2.4 77.7-5.2 116.7-4.8 38.9 0 77.9 1 116.8 2.2 38.8 1.4 77.7 3.2 116.6 5.2l58.3 3c19.4 1.2 38.8 2.3 58.2 3.7z"/>
				</g>
				<g id="&lt;Group&gt;">
					<path id="&lt;Path&gt;" class="s1" d="m3026.8 2605.3c-17.9-0.1-35.7-0.7-53.6-1l-53.5-1.8-107-3.2-107-3.8c-17.8-0.7-35.6-1.2-53.4-1.4-17.9-0.7-35.8-1.1-53.6-1.9 35.7-1.4 71.3-2.6 107.1-2.5 35.8 0 71.5 1 107.2 2.1 35.6 1.3 71.3 2.6 107 5l53.4 3.8c17.8 1.6 35.6 2.9 53.4 4.7z"/>
				</g>
				<g id="&lt;Group&gt;">
					<path id="&lt;Path&gt;" class="s1" d="m3000.6 2571.6c-32.3 3.3-64.9 2-97.3 1.6-32.4-0.7-64.7-1.8-97.1-2.8l-97.1-3.5c-16.2-0.6-32.4-1.2-48.6-1.6-16.1-0.5-32.6-0.4-48.4-1.5l48.4-2.1c16.2-0.5 32.4-0.5 48.7-0.6 32.4 0 64.8 0.9 97.2 1.9 32.4 1.1 64.8 2.4 97.2 4.4 16.1 1 32.3 2 48.5 2.8 16.1 0.8 32.3 1.8 48.5 1.4z"/>
				</g>
				<g id="&lt;Group&gt;">
					<path id="&lt;Path&gt;" class="s1" d="m495.4 2463.6l94.1-1.7 94-1.3 188.1-2.5 376.1-3.1c125.4-1.3 250.8-1.4 376.2-2.1l376.1-0.6 376.1 0.6c125.4 0.7 250.8 0.8 376.2 2l376.1 3.2 188.1 2.5 94 1.3 94.1 1.7c7.4 0.2 13.4 6.3 13.2 13.8-0.1 7.2-6 13.1-13.2 13.2l-94.1 1.7-94 1.3-188.1 2.6-376.1 3.1c-125.4 1.3-250.8 1.3-376.2 2l-376.1 0.6-376.1-0.6c-125.4-0.7-250.8-0.7-376.2-2l-376.1-3.2-188.1-2.5-94-1.3-94.1-1.7c-7.4-0.1-13.4-6.3-13.2-13.7 0.1-7.3 6-13.1 13.2-13.3z"/>
				</g>
				<g id="&lt;Group&gt;">
					<path id="&lt;Path&gt;" class="s5" d="m1767 2702.5l215.9-200.7c0.9-0.8 1.4-2 1.4-3.2v-36c0-2.5-2.1-4.4-4.5-4.2l-690.7 42.1-320.5 202z"/>
				</g>
				<g id="&lt;Group&gt;" style="opacity: .3">
					<path id="&lt;Path&gt;" class="s6" d="m1984.3 2481.9v16.7c0 1.2-0.5 2.4-1.4 3.2l-215.9 200.7h-798.4l58.4-36.8h725.4z"/>
				</g>
				<g id="&lt;Group&gt;">
					<path id="&lt;Compound Path&gt;" fill-rule="evenodd" class="s1" d="m1773 2717.7h-857.3l368.6-232.2 694.5-42.4c5.4-0.3 10.7 1.6 14.6 5.3 3.9 3.6 6.1 8.8 6.1 14.2v36c0 5.4-2.2 10.6-6.2 14.3zm-751.5-30.5h739.5l208-193.4v-19.5l-675 41.2z"/>
				</g>
				<g id="&lt;Group&gt;">
					<path id="&lt;Path&gt;" class="s5" d="m1767 2617.6l217.3-159.5h-695.2l-320.5 159.5z"/>
				</g>
				<g id="&lt;Group&gt;">
					<path id="&lt;Path&gt;" class="s0" d="m1710.9 2597.5l141.4-103.8h-452.2l-208.5 103.8z"/>
				</g>
				<g id="&lt;Group&gt;">
					<path id="&lt;Compound Path&gt;" fill-rule="evenodd" class="s1" d="m1770.3 2627.6h-844.3l360.7-179.5h684.6c6.2 0 11.6 3.9 13.5 9.8 2 5.9-0.1 12.2-5.1 15.9zm-759.1-20h752.6l190-139.6h-662.3z"/>
				</g>
				<g id="&lt;Group&gt;">
					<path id="&lt;Path&gt;" class="s5" d="m1746.4 2711.9h-908.3c-5.8 0-11.2-2.4-15.1-6.4-2.6-2.6-4.5-5.9-5.4-9.7l-152.8-620c-6.6-26.7 13.6-52.6 41.2-52.6h847.9c28 0 52.4 18.2 60.7 44.6q0.6 1.9 1.1 3.9l151.3 613.9c3.3 13.4-6.9 26.3-20.6 26.3z"/>
				</g>
				<g id="&lt;Group&gt;" style="opacity: .3">
					<path id="&lt;Path&gt;" class="s6" d="m1746.4 2711.9h-908.3c-5.8 0-11.2-2.4-15.1-6.4 111.3 5.4 498.4 8.4 683.2-190.9 118.3-127.7 120.2-327.8 108.4-446.8q0.6 1.9 1.1 3.9l151.3 613.9c3.3 13.4-6.9 26.3-20.6 26.3z"/>
				</g>
				<g id="&lt;Group&gt;" style="opacity: .3">
					<path id="&lt;Path&gt;" class="s0" d="m711.3 2094.4l152.1 617.5h-25.3c-9.7 0-18.2-6.7-20.5-16.1l-152.8-620c-6.6-26.7 13.6-52.6 41.2-52.6h847.9c28.6 0 53.5 19 61.2 46.4-2.6-0.4-5.3-0.6-8.1-0.6h-875.8c-13.3 0-23.1 12.5-19.9 25.4z"/>
				</g>
				<g id="&lt;Group&gt;">
					<path id="&lt;Compound Path&gt;" fill-rule="evenodd" class="s1" d="m1746.4 2727.2h-908.2c-16.9 0-31.4-11.4-35.5-27.8l-152.7-619.9c-4.3-17.4-0.4-35.4 10.6-49.4 11-14.1 27.5-22.1 45.4-22.1h847.9c36.4 0 67.9 24.7 76.6 60l151.3 614c2.7 10.9 0.3 22.3-6.7 31.2-7 8.9-17.4 14-28.7 14zm-1040.4-688.7c-8.4 0-16.2 3.8-21.4 10.4-5.2 6.6-7 15.1-5 23.3l152.8 619.9c0.6 2.7 3 4.5 5.8 4.5h908.2c2.5 0 4-1.4 4.7-2.2 0.6-0.9 1.7-2.7 1.1-5.1l-151.3-614c-5.4-21.7-24.7-36.8-47-36.8z"/>
				</g>
				<g id="&lt;Group&gt;" style="opacity: .3">
					<path id="&lt;Path&gt;" class="s1" d="m2644.6 2522.2l-61.9 214.3h-90.7l86.5-215z"/>
				</g>
				<g id="&lt;Group&gt;">
					<path id="&lt;Path&gt;" class="s0" d="m2089.2 2512.4l-246.8 222.7c0 0 219.9-11.3 322-11 83.2 0.2 361.7 21.5 361.7 21.5l64.7-224.1z"/>
				</g>
				<g id="&lt;Group&gt;">
					<path id="&lt;Compound Path&gt;" fill-rule="evenodd" class="s1" d="m2537.3 2761.8l-12.4-0.9c-2.8-0.2-278.8-21.3-360.5-21.6-100.4-0.2-319.1 10.9-321.3 11.1l-42.9 2.2 283.2-255.6 527.6 9.6zm-376.7-53q1.9 0 3.9 0c73.8 0.2 294.9 16.5 350.4 20.7l55.8-193.1-475.8-8.7-210.5 190.1c68.1-3.2 201.4-9 276.2-9z"/>
				</g>
				<g id="&lt;Group&gt;">
					<path id="&lt;Path&gt;" class="s1" d="m2221.8 2515.4c0.1 34-6.6 67.3-19.3 96.7l-5.2 12.2c-6.1 14-21.2 14-27.3 0l-5.4-12.6c-12.6-29.1-19.2-62.2-19.2-95.8v-346.8c0-11.9 16.8-21.6 37.7-21.6 20.8 0 37.6 9.7 37.6 21.6q0 0.8-0.1 1.7z"/>
				</g>
				<g id="&lt;Group&gt;">
					<path id="&lt;Path&gt;" class="s1" d="m2485.8 2682c-20.9-0.4-41.8-1.2-62.7-1.8l-62.7-2.5c-41.7-2-83.6-3.3-125.3-4.6-41.8-1.7-83.6-2.9-125.4-4.2-20.9-0.8-41.7-1-62.7-1.3-20.9-0.7-41.8-1-62.7-1.9 41.8-1.4 83.6-2.6 125.5-2.6 41.9 0.1 83.7 1.4 125.5 2.6l62.7 2.6c20.9 0.9 41.8 2.1 62.7 3.7l62.6 4.6c20.8 1.8 41.7 3.3 62.5 5.4z"/>
				</g>
				<g id="&lt;Group&gt;">
					<path id="&lt;Path&gt;" class="s1" d="m2508 2645q-39.6-0.4-79-2.3c-13.2-0.5-26.3-1.3-39.5-2-13.1-0.7-26.3-1.7-39.4-2.2l-78.8-3.9c-26.3-1.1-52.6-2.6-78.9-3.4 26.3-2.1 52.7-2.6 79-2.4 26.4 0.1 52.8 1 79.1 2.2 26.4 1.4 52.6 3.6 78.9 5.9q39.3 3.3 78.6 8.1z"/>
				</g>
				<g id="&lt;Group&gt;">
					<path id="&lt;Path&gt;" class="s0" d="m2575.1 1833.2c0 0 69.9 153.8 81.7 328.4 12 177.8-5.4 430.6-419.4 396.3-145.2-12-138.1-73.7-143.5-146.4-6.7-90.2 3.6-193.7 108.9-197.6 190.4-7 247.2-48.5 274.3-165.2"/>
				</g>
				<g id="&lt;Group&gt;" style="opacity: .3">
					<path id="&lt;Path&gt;" class="s1" d="m2658.4 2260.8c-8.1 159-80.1 325.3-421 297.1-145.2-12-138.1-73.7-143.5-146.4-3.7-49.4-2.2-102.7 17.1-141.5 0.2 10.7 0.7 21.4 1.5 31.9 5.4 72.8-1.7 134.5 143.5 146.5 261.6 21.6 364.8-71.3 402.4-187.6z"/>
				</g>
				<g id="&lt;Group&gt;">
					<path id="&lt;Path&gt;" class="s1" d="m2431.3 2127.8c3.2-6.6 6.9-12.6 10.5-18.9 3.6-6.3 7.6-12.6 11.2-19.2 7.5-13.2 14.3-27.2 22.4-41.4 0.5-0.9 1.6-1.2 2.5-0.7 0.6 0.3 0.9 0.9 0.9 1.5 0.9 16.4-0.8 32.7-4.8 48.8-2 8-4.5 16-8.2 23.6-3.7 7.6-8.2 14.9-14.2 21-5 5-13 5-17.9 0.1-3.9-3.9-4.8-9.7-2.5-14.4z"/>
				</g>
				<g id="&lt;Group&gt;">
					<path id="&lt;Path&gt;" class="s1" d="m2309 2576.3q-34.8 0-72.9-3.2c-148.1-12.2-152.3-80-156.4-145.5-0.4-4.9-0.7-9.9-1-15-6.3-84.2 5.8-142 36.9-176.7 20.9-23.3 50.1-35.9 86.7-37.2 121.1-4.5 184.9-23.1 220.4-64.4 5.5-6.4 15.1-7.1 21.5-1.6 6.4 5.5 7.2 15.1 1.7 21.5-41.7 48.5-111.9 70.2-242.5 75-28.4 1-49.7 9.9-65.1 27.1-25.2 28.2-34.8 78.6-29.2 154q0.6 7.8 1 15.4c4.1 64.4 6.7 106.9 128.5 117 152 12.6 262.1-13.6 327.3-77.8 79.8-78.6 82.4-202.8 75.7-302.2-11.5-169.9-79.7-321.6-80.4-323.2-3.5-7.6-0.1-16.7 7.6-20.2 7.6-3.5 16.7-0.1 20.2 7.6 2.9 6.4 71.2 158.4 83 333.7 7.2 105.9 4 238.7-84.7 326-60.5 59.6-153.9 89.7-278.3 89.7z"/>
				</g>
				<g id="&lt;Group&gt;">
					<path id="&lt;Path&gt;" class="s1" d="m2600 2464.2q-0.3 0-0.6-0.1c-8.5-0.3-15-7.4-14.6-15.9 10.8-251-144-291.7-150.6-293.3-8.2-2-13.2-10.2-11.3-18.4 2-8.2 10.2-13.2 18.3-11.3 2 0.4 48.4 11.8 93 58.2 40.4 42.1 87.3 122.4 81.1 266.1-0.4 8.2-7.1 14.7-15.3 14.7z"/>
				</g>
				<g id="&lt;Group&gt;">
					<g id="&lt;Group&gt;">
						<path id="&lt;Compound Path&gt;" fill-rule="evenodd" class="s1" d="m1327.1 2316.6c-8 18.6-19.4 34.9-34.5 48.3-6.7 6-13.6 11.6-20.3 17.5-0.8 0.6-1.4 2.4-1 3.3 7.6 23.9 2.3 45.9-10 66.7-9.9 16.6-23.3 29.9-38.6 41.5-6.6 5-13.4 9.8-20.3 14.4-7.6 5.1-15.3 1.9-17.2-7.1-3.9-18.9-7.6-37.9-11.5-56.8-0.2-1.2-0.5-2.4-0.9-4-1.5 0.6-2.8 1.1-4.1 1.7-7 3.2-10.5 2.6-16.2-2.8-4.9-4.7-9.9-9.6-15.1-14.7-4.1 4.3-8 8.4-12 12.4-3.2 3.1-7.2 3.8-11.4 2-3.9-1.6-6.7-5.4-6-9.7 0.3-2.6 1.6-5.4 3.3-7.5 3.3-4 7.2-7.6 11.1-11.6-3.9-3.7-7.6-7.3-11.3-10.8-0.6-0.7-1.3-1.4-2-2-6.7-5.3-9.1-11.6-4.6-19.6 0.1-0.2 0.2-0.6 0.3-0.8 0-0.2-0.1-0.4-0.1-0.9-13.9-2.3-27.7-4.5-41.6-6.8-5.8-1-11.6-1.9-17.4-2.9-9.2-1.6-12.7-9.1-7.8-17 11.3-18.7 23.8-36.4 40.4-50.8 15.4-13.2 32.6-22.6 53.2-24.7 7.7-0.8 15.4-0.5 22.8 1.6 3.2 0.9 4.6-0.2 6.5-2.5 6.7-8.6 13.2-17.4 20.6-25.4 20.4-22.2 46.1-35.4 75.1-42.3 22.3-5.4 44.9-6.5 67.7-4.1 3.2 0.3 6.3 1.3 9.5 1.9 1 1 2.1 2 3.1 3 3.6 10.2 3.8 20.9 4.2 31.4 1 27.4-3.1 53.9-13.9 79.1zm-182-21.6c-7.5-1.8-19.5-0.2-29.4 4.2-23 10.2-38.4 28.5-52.6 48.9 17.1 2.9 33.7 5.6 49.8 8.3 10.9-20.7 21.6-41 32.2-61.4zm107.5 102.2c-20 11.5-39.8 22.9-60.2 34.5q5.1 25.1 10.4 51.2c13.2-9.7 25.1-19.9 34.8-32.7 7.8-10.4 13.7-21.6 15.7-34.6 1-6.3 1-12.7-0.7-18.4zm61.6-115.3c-4.3-4-8.5-8.2-12.7-12.2-14.2-13.7-28.3-27.4-42.5-41-0.9-0.8-2.6-1.7-3.6-1.3-11.6 3-22.5 7.6-32.8 13.5-16.2 9.3-28.7 22.6-39.8 37.2-12 15.5-22.5 31.9-31.2 49.4-8.9 17.6-17.2 35.5-25.6 53.3-0.6 1-0.8 2.9-0.2 3.6 3.5 3.6 7.2 7 11.1 10.8 8.3-8.7 16.3-17 24.4-25.3q16.2-16.9 32.4-33.6c3.9-4 8.9-4.8 13.2-2.2 6.1 3.6 7 11.3 1.8 16.6-18 18.7-36.1 37.4-54.1 56.1-0.9 0.9-1.7 1.7-2.5 2.6 0.3 0.6 0.4 0.9 0.6 1.1 3.2 3.1 6.5 6 9.5 9.2 1.4 1.4 2.5 1.4 4.1 0.6 34.1-16.1 67-34 96.8-57.2 10.9-8.6 21.2-18 29.8-29 11.1-14.3 18-30.6 22.5-48.1 0.4-1.8 0.1-2.9-1.2-4.1zm4.5-61.1c-13.8 0.4-27.5 0.8-41.1 1.2 0 0.4-0.1 0.8 0 1.2 13.8 13.3 27.5 26.6 41.6 40.2 1.3-14.2 1.5-27.9-0.5-42.6z"/>
					</g>
					<g id="&lt;Group&gt;">
						<path id="&lt;Compound Path&gt;" fill-rule="evenodd" class="s0" d="m1315.4 2286c-4.5 17.5-11.4 33.8-22.5 48.1-8.6 11-18.9 20.4-29.8 29-29.8 23.2-62.7 41.1-96.8 57.2-1.6 0.8-2.7 0.8-4.1-0.6-3-3.2-6.3-6.1-9.5-9.2-0.2-0.2-0.3-0.5-0.6-1.1 0.8-0.9 1.6-1.7 2.5-2.6 18-18.7 36.1-37.4 54.1-56.1 5.2-5.3 4.3-13-1.8-16.6-4.3-2.6-9.3-1.8-13.2 2.2q-16.2 16.7-32.4 33.6c-8.1 8.3-16.1 16.6-24.4 25.3-3.9-3.8-7.6-7.2-11.1-10.8-0.6-0.7-0.4-2.6 0.2-3.6 8.4-17.8 16.7-35.7 25.6-53.3 8.7-17.5 19.2-33.9 31.2-49.4 11.1-14.6 23.6-27.9 39.8-37.2 10.3-5.9 21.2-10.5 32.8-13.5 1-0.4 2.7 0.5 3.6 1.3 14.2 13.6 28.3 27.3 42.5 41 4.2 4 8.4 8.2 12.7 12.2 1.3 1.2 1.6 2.3 1.2 4.1zm-34.4-25.1c-14.1-13.6-36.5-13.2-49.9 0.7-13.6 14.2-13.3 36.6 0.8 50.1 14 13.6 36.4 13.2 50.2-0.9 13.4-13.7 12.9-36.4-1.1-49.9z"/>
					</g>
					<g id="&lt;Group&gt;">
						<path id="&lt;Path&gt;" class="s7" d="m1319.2 2263.4c-14.1-13.6-27.9-26.9-41.6-40.2-0.1-0.4 0-0.8 0-1.2 13.6-0.4 27.3-0.8 41.1-1.2 2 14.7 1.8 28.4 0.5 42.6z"/>
					</g>
					<g id="&lt;Group&gt;">
						<path id="&lt;Path&gt;" class="s7" d="m1145.1 2295c-10.6 20.4-21.3 40.7-32.2 61.4-16.1-2.7-32.7-5.4-49.8-8.3 14.2-20.4 29.6-38.7 52.6-48.9 9.9-4.4 21.9-6 29.4-4.2z"/>
					</g>
					<g id="&lt;Group&gt;">
						<path id="&lt;Path&gt;" class="s7" d="m1237.6 2450.2c-9.7 12.8-21.6 23-34.8 32.7q-5.3-26.1-10.4-51.2c20.4-11.6 40.2-23 60.3-34.5 1.7 5.7 1.6 12.1 0.6 18.4-2 13-7.9 24.2-15.7 34.6z"/>
					</g>
					<g id="&lt;Group&gt;">
						<path id="&lt;Compound Path&gt;" fill-rule="evenodd" class="s1" d="m1282.1 2310.8c-13.8 14.1-36.2 14.5-50.2 0.9-14.1-13.5-14.4-35.9-0.8-50.1 13.4-13.9 35.8-14.3 49.9-0.7 14 13.5 14.5 36.2 1.1 49.9zm-12.6-37.9c-7.1-7.1-19.1-7-26.1 0.1-7.5 7.5-7.4 19.7 0.1 26.8 7.4 7 19.2 6.8 26.2-0.3 7.3-7.5 7.2-19.3-0.2-26.6z"/>
					</g>
					<g id="&lt;Group&gt;">
						<path id="&lt;Path&gt;" class="s2" d="m1269.6 2299.5c-6.9 7.1-18.7 7.3-26.1 0.3-7.5-7.1-7.6-19.3-0.1-26.8 7-7.1 19-7.1 26.1-0.1 7.4 7.3 7.5 19.1 0.1 26.6z"/>
					</g>
				</g>
			</g>
		</g>
	</g>
</svg>