<svg version="1.2" xmlns="http://www.w3.org/2000/svg" viewBox="0 0 4000 4000" width="4000" height="4000">
	<title>3400_7_02-ai</title>
	<defs>
		<clipPath clipPathUnits="userSpaceOnUse" id="cp1">
			<path d="m2197.73 670.18c44.98 276.12-142.39 536.43-418.51 581.42-276.13 44.99-536.44-142.39-581.42-418.51-44.99-276.12 142.38-536.44 418.51-581.42 276.12-44.99 536.43 142.39 581.42 418.51z"/>
		</clipPath>
	</defs>
	<style>
		.s0 { fill: #ffffff } 
		.s1 { fill: #000072 } 
		.s2 { fill: #ea3f24 } 
		.s3 { fill: #ff7a45 } 
		.s4 { fill: #232323 } 
		.s5 { fill: #0086ff } 
		.s6 { fill: #61bbff } 
		.s7 { fill: #00b1ff } 
		.s8 { fill: #00ff4e } 
		.s9 { fill: #ffc524 } 
		.s10 { fill: #ff8500 } 
		.s11 { fill: #ffb600 } 
	</style>
	<g id="_Artboards_">
	</g>
	<g id="Layer 1">
		<g id="&lt;Group&gt;">
			<g id="&lt;Group&gt;">
			</g>
			<g id="&lt;Group&gt;">
				<g id="&lt;Group&gt;">
				</g>
				<g id="&lt;Group&gt;">
					<g id="&lt;Group&gt;">
						<g id="&lt;Group&gt;">
							<path id="&lt;Path&gt;" class="s0" d="m2819.4 2524.7c-0.2 1.2-0.5 2.5-0.7 3.7l-60.5 296.5-67.2 329.5c-6.6 32.5-39.7 52.2-71.3 42.6l-4.4-1.3-571.6-173.2 85.4-333 71.3-278.1 406.9 16c60.8-5.2 111.7 0.3 149.7 8 41.5 8.6 68.8 47.9 62.4 89.3z"/>
						</g>
						<g id="&lt;Group&gt;" style="opacity: .3">
							<path id="&lt;Path&gt;" class="s1" d="m2816.3 2522.7q1.2 2.9 2.4 5.7l-60.5 296.5c-21 13.4-38.6 24.2-49 30.6-6.7 4-11.4 10.5-13.3 18l-80.6 322.2-571.6-173.2 85.4-333c162.6-97.2 390.5-221.6 496.8-225.4 66.7-2.4 134.9 23 190.4 58.6z"/>
						</g>
						<g id="&lt;Group&gt;">
							<path id="&lt;Compound Path&gt;" fill-rule="evenodd" class="s1" d="m2635.9 3211.5c-6.6 0-13.3-1-19.7-3l-576-174.4c-6.1-1.9-9.8-8.3-8.1-14.6l156.6-611.2c1.4-5.5 6.7-9.2 12.2-9l406.2 16c52.4-4.5 103.7-1.6 152.3 8.3 49.2 10.1 81.1 58.2 71.1 107.2l-127.7 626.1c-3.8 18.7-15.4 35.1-31.9 44.9-10.6 6.4-22.8 9.7-35 9.7zm-577.6-197.2l564.9 171.1c12 3.7 24.6 2.2 35.4-4.3 10.7-6.4 18.1-16.7 20.6-29.1l127.7-626.1c7.3-35.9-16.2-71.2-52.3-78.6-46.6-9.6-95.8-12.2-146.2-7.9q-0.8 0.1-1.5 0l-397.2-15.6z"/>
						</g>
					</g>
					<g id="&lt;Group&gt;">
						<g id="&lt;Group&gt;">
							<path id="&lt;Path&gt;" class="s0" d="m1898 2695.2c0 0-48.7-7.8-93.6 12.4 0 0-59.1-3.7-99.8-54.6-25.1-31.3-43.2-80.6-36.3-158 0 0 103.9-96.4 283.1-59 23.1 4.8 47.4 11.9 72.9 21.7 0 0 92.5 222-126.3 237.5z"/>
						</g>
						<g id="&lt;Group&gt;" style="opacity: .3">
							<path id="&lt;Path&gt;" class="s1" d="m1898 2695.2c0 0-48.7-7.8-93.6 12.4 0 0-59.1-3.7-99.8-54.6 34.8-50.5 94.8-81.8 144-100.2 46.8-17.5 83.5-55 98.2-102.8q2.4-7.8 4.6-14c23.1 4.8 47.4 11.9 72.9 21.7 0 0 92.5 222-126.3 237.5z"/>
						</g>
						<g id="&lt;Group&gt;">
							<path id="&lt;Path&gt;" class="s1" d="m1837.1 2709.5l-9.1-22.4c0.1 0 38.9-19.4 25.1-122.1-13.7-102.5-122.6-94.1-127.3-93.6l-2.2-24.1c1.4-0.1 136.6-11.1 153.4 114.5 16.3 121.3-34.1 145.4-39.9 147.7z"/>
						</g>
						<g id="&lt;Group&gt;">
							<path id="&lt;Compound Path&gt;" fill-rule="evenodd" class="s1" d="m1804.4 2719.7q-0.3 0-0.7 0c-2.5-0.2-61.5-4.4-104.9-54.8-34.7-40.3-49-97.9-42.5-170.9 0.3-3 1.7-5.8 3.8-7.8 5.7-5.2 140.5-127 368.5-39.8 3.1 1.2 5.6 3.6 6.9 6.6 1.9 4.5 45.4 111.3-0.8 186.4-25 40.4-70.7 63.2-135.8 67.9-0.9 0-1.9 0-2.8-0.2-0.4 0-45.9-6.8-86.7 11.5-1.6 0.7-3.3 1.1-5 1.1zm-124.4-218.7c-4.9 64 7.6 113.8 37.1 148.2 31.9 37.1 74.4 44.7 85.4 46.1 42.8-18.1 87.2-13.4 95.9-12.2 56.3-4.2 95.3-23.2 115.7-56.4 34.9-56.5 8.4-139.1 0.9-159.7-192-71.1-313.6 16.6-335 34z"/>
						</g>
					</g>
					<g id="&lt;Group&gt;">
						<g id="&lt;Group&gt;">
							<path id="&lt;Path&gt;" class="s0" d="m3037 2572c-136.5 131.1-374.1 251.4-374.1 251.4-113.5 537.8-199.8 554.3-298.1 564.7-98.2 10.3-194.4 53.8-226.4 170.6-32.1 116.8-86.9 151-265.8 121-103.2-17.3-128.3-61.9-131.1-96.6-1.9-24 6.9-43.3 7.9-45.4 0.1 0 0.1-0.1 0.1-0.2 0 0-25.4 0.8-60.6-1.9-14.9-1.2-31.5-2.9-48.7-5.7-66.5-10.7-141.1-35.9-154.4-94.8-2.6-11.8-3.6-22.8-3.1-33.1 3.5-85.5 102.4-118.9 102.4-118.9 40.3-336.6 268.4-350.5 268.4-350.5 12.4-257.6 123.8-408.5 123.8-408.5 275.9-182 680.2-22.3 680.2-22.3 103.4-27.9 165.4-81.1 184.1-98.2 18.6-17.1 3.8-145 41.1-158.2 37.2-13.2 52.7 38 52.7 38 0 0 41.9-107.8 77.6-98.5 35.6 9.3 20.1 69.8 20.1 69.8 0 0 38-72.1 80.7-43.4 42.6 28.6-9.3 126.4-9.3 126.4 16.7-16.3 31.1-23.4 42.3-26.1 14.5-3.5 29.7 3.9 36 17.4 22.1 47.1-25.2 127.2-145.8 243z"/>
						</g>
						<g id="&lt;Group&gt;">
							<path id="&lt;Compound Path&gt;" fill-rule="evenodd" class="s1" d="m1977.4 3702.2c-30.2 0-65.5-3.7-106.8-10.6-68.3-11.4-112.5-36.1-131.5-73.3-13.3-26.1-10.7-52.1-6.5-68.6-57.3-0.6-235.7-10.5-258.5-111.9-23.2-103 72.4-151.6 99.9-163.3 22.5-173.4 95.5-260.2 153.3-302.6 48.8-35.9 94.5-46.8 114.6-50.1 14.8-251.9 121.2-398.7 125.7-404.9 0.9-1.1 1.9-2.1 3.1-2.9 145.6-96.1 326-97.2 451.7-81.3 122.5 15.6 215.8 49 235.7 56.5 90.2-25.2 148.4-69.9 175.3-94.5 4.2-5.1 6.5-34 8.1-53.1 3.8-47.8 7.7-97.2 37.1-107.6 12.2-4.3 24.3-3.7 35 1.7 8.9 4.5 15.8 11.7 20.9 19 16.9-36.7 47.8-90.3 81.5-81.5 20.7 5.4 29.4 22.6 31.9 41.4 9.2-9.2 20.6-17.4 33.5-20.7 13.4-3.4 27-0.8 39.1 7.3 31.8 21.4 23.5 68.3 11.7 102.6q5.9-2.5 11.8-3.9c20-4.9 40.9 5.2 49.8 24 24.8 53-23.7 137-148.4 256.8-125.1 120.1-336.2 232.3-371.9 250.8-51.9 244.9-101.3 397.1-155.3 478.7-52.5 79.4-105.4 85-152.1 89.9-117.3 12.3-190 66.8-216.1 161.8-27.3 99.4-72.2 140.3-172.6 140.3zm-227.9-176.8c4.1 0 8 2.1 10.2 5.6 2.3 3.6 2.5 8.1 0.6 11.9-0.1 0.3-15.8 33.2 0.5 64.7 15.3 29.9 53.6 50.1 113.8 60.2 182.2 30.6 223.5-8.1 252.1-112.3 28.6-104.1 110.5-166.1 236.9-179.4 89.6-9.4 174.2-18.4 287.5-555.1 0.8-3.6 3.1-6.7 6.4-8.3 2.3-1.2 237.5-121.1 371.1-249.4 142.9-137.3 156.8-200.4 143.3-229.1-4-8.5-13.3-13-22.3-10.9-11.5 2.8-24.2 10.8-36.7 23-4.2 4.2-10.9 4.6-15.6 1-4.8-3.5-6.3-10-3.5-15.3 12.2-22.9 40.6-92.3 13.3-110.7-6.6-4.5-12.9-5.7-19.8-4-19.7 5-38.1 32.7-43.5 43-2.9 5.4-9.3 7.8-15 5.6-5.7-2.2-8.9-8.3-7.4-14.2 0.2-0.5 11.8-49.1-11.5-55.1-14.9-3.9-45.3 44.9-63.3 91.2-1.8 4.8-6.6 7.8-11.7 7.6-5.1-0.2-9.5-3.6-11-8.5-2-6.3-9.6-23.8-21.2-29.7-4.9-2.4-10-2.6-16-0.5-14.7 5.2-18.7 56.3-21.2 86.8-3 37.6-5.2 59.3-15.8 69-28.8 26.4-91.8 74.7-189.1 101-2.5 0.7-5.1 0.5-7.5-0.4-4-1.6-399.9-154.7-667.2 19.8-11.9 17.1-109 164-120.4 400.2-0.3 6.2-5.2 11.1-11.3 11.5-0.5 0-55.2 4.1-113.8 47.6-77.8 57.7-127.3 158.8-143.3 292.4-0.6 4.6-3.7 8.5-8.1 9.9-4.7 1.6-113.5 39.9-91.4 138 18.6 82.4 187.8 95.1 251.5 93q0.2-0.1 0.4-0.1z"/>
						</g>
						<g id="&lt;Group&gt;" style="opacity: .3">
							<path id="&lt;Path&gt;" class="s1" d="m3037 2572c-136.5 131.1-374.1 251.4-374.1 251.4-113.5 537.8-199.8 554.3-298.1 564.7-98.2 10.3-194.4 53.8-226.4 170.6-32.1 116.8-86.9 151-265.8 121-103.2-17.3-128.3-61.9-131.1-96.6 132.6 95.8 304.8-13 304.8-13 49.2-150.7 157.9-239.1 248.2-288.6 77.1-42.3 75.2-154-2.8-194.6-145.8-75.9-346.9-120.4-346.9-120.4l75.7-114.6c210.4-9.3 469.6 117.9 469.6 117.9 54.9-50.3 74.5-108.7 78.2-160.8 5.2-73.1-55.7-134.5-128.9-130.4-334.5 18.3-462.1-154.5-462.1-154.5 275.9-182 680.2-22.3 680.2-22.3 68.8 303.1 302.5 53 302.5 53 194.5-110.9 222.8-225.8 222.8-225.8 22.1 47.1-25.2 127.2-145.8 243z"/>
						</g>
						<g id="&lt;Group&gt;" style="opacity: .3">
							<path id="&lt;Path&gt;" class="s1" d="m2307.6 3177.3c-40.6 18.8-127.9 44.2-255.4 1.3-22.6-7.6-47.3-7.1-69.1 2.6-40.8 18-102.7 60.5-142.8 158.9 0 0-15.3 55.1-29 135.6 0 0-40.8 13.7-61.8 61.8 0 0-25.4 0.8-60.6-1.9-14.9-1.2-31.5-2.9-48.7-5.7-66.5-10.7-141.1-35.9-154.4-94.8-2.6-11.8-3.6-22.8-3.1-33.1 19.6 28.6 60.3 63.8 144 71.9 31.8 3.1 63.9-5 90.4-22.8q0.6-0.4 1.1-0.7c31-20.4 52.4-52.6 59.6-89.1 12-61.4 40.8-151.8 109.2-212.6 17-15.1 23-38.8 15.7-60.3-8.5-24.9-16.8-60.7-14.5-102 0.5-9.3 11.9-13.3 18.3-6.7 36.7 38.3 145.4 126.7 398.6 177.5 10.1 2.1 11.8 15.8 2.5 20.1z"/>
						</g>
						<g id="&lt;Group&gt;">
							<g id="&lt;Group&gt;">
								<path id="&lt;Path&gt;" class="s1" d="m1596.9 3285.6c-3 8.9-6.7 18-10.1 27l-5.2 13.6c-1.7 4.6-3.5 9.2-5 13.9-1.4-4.8-2-9.8-2.6-14.8-0.5-5-0.8-10-1.1-14.9-0.3-10-0.4-19.8 0.4-29.7z"/>
							</g>
							<g id="&lt;Group&gt;">
								<path id="&lt;Path&gt;" class="s1" d="m1760.7 3542.2l-22.3-9.3c0.9-2.3 22.5-53.2 65.6-67.6 3.9-50.5 31.8-292.3 212.4-356.4l8.1 22.7c-182.4 64.7-196.9 340.8-197 343.6-0.2 5.6-4.3 10.3-9.7 11.3-36.5 7.2-56.9 55.2-57.1 55.7z"/>
							</g>
							<g id="&lt;Group&gt;">
								<path id="&lt;Path&gt;" class="s1" d="m1918.6 3022.5c12.6 13 24 24.2 35.9 35.5l4.3 4.3 4.6 4.1 9.2 8.1c6.6 4.8 13 9.9 19.8 14.4 7.1 4.2 13.9 8.8 21.2 12.6l22 11.2 22.9 9.4c1.9 0.8 3.8 1.7 5.8 2.4l5.9 1.9 11.8 3.9c7.9 2.7 15.7 5.4 23.9 7.2l24.3 6.2c4 1.2 8.2 1.9 12.3 2.7l12.4 2.2c8.2 1.5 16.5 3.3 24.8 4.5l25.1 2.9c8.4 0.9 16.7 2.4 25.2 3.4 16.8 1.9 33.7 4.2 50.8 8.9-17 4-34.3 5.5-51.6 6.8-17.3 0.4-34.6-1.3-51.9-2.2-8.6-0.9-17.2-2.2-25.8-3.3l-13-1.7c-4.3-0.6-8.6-1.1-12.9-2.1-17-4-34.3-6.8-50.9-12.7l-12.5-4-6.3-2c-2-0.8-4-1.7-6.1-2.5l-24.3-10.3-23.4-12.6c-7.7-4.5-14.9-9.8-22.3-14.6-7.2-5.2-14-11.1-20.9-16.7l-9.6-9.3-4.8-4.7-4.3-5.1c-2.8-3.6-5.7-6.9-8.1-10.8-2.3-3.9-4.7-7.7-6.6-11.8-3.7-8.2-6.8-16.9-6.9-26.2z"/>
							</g>
							<g id="&lt;Group&gt;">
								<path id="&lt;Path&gt;" class="s1" d="m1845.1 3336.1c-182.3-5.6-258.2-91.3-261.4-95l18.3-15.7c0.7 0.8 72.9 81.3 243.9 86.6z"/>
							</g>
							<g id="&lt;Group&gt;">
								<path id="&lt;Path&gt;" class="s1" d="m2125.9 3493.4c-192.7 0-296.4-117.4-301-122.8l18.2-15.8c1.2 1.3 119.6 134.8 333.5 111.6l2.5 24c-18.4 2-36.2 3-53.2 3z"/>
							</g>
							<g id="&lt;Group&gt;">
								<path id="&lt;Path&gt;" class="s1" d="m3036.1 2584c-178.5-13.1-214.7-168.5-215.1-170.1l23.6-5.2c1.3 5.7 33 139.5 193.3 151.2z"/>
							</g>
							<g id="&lt;Group&gt;">
								<path id="&lt;Path&gt;" class="s1" d="m3088.7 2435.3c-4.3 0-8.5-2.3-10.6-6.4-48.4-90.4-152.5-93.4-153.5-93.4-6.7-0.1-12-5.6-11.9-12.3 0.2-6.6 5.5-11.8 12.1-11.8q0.1 0 0.2 0c4.9 0.1 119.4 3.4 174.4 106.2 3.1 5.8 0.9 13.1-5 16.3-1.8 1-3.8 1.4-5.7 1.4z"/>
							</g>
							<g id="&lt;Group&gt;">
								<path id="&lt;Path&gt;" class="s1" d="m2949.2 2325.4l-24-1.8c0.8-10.3-1-31.6-1.8-39l24-2.5c0.1 1.2 2.9 28.7 1.8 43.3z"/>
							</g>
							<g id="&lt;Group&gt;">
								<path id="&lt;Path&gt;" class="s1" d="m3007.7 2345.9l-21.6-10.7c11.7-23.5 35.6-84.3 35.8-84.9l22.5 8.8c-1 2.5-24.5 62.4-36.7 86.8z"/>
							</g>
							<g id="&lt;Group&gt;">
								<path id="&lt;Path&gt;" class="s1" d="m3073.7 2398.6l-16.3-17.9c20.9-19 36.2-48.3 36.4-48.6l21.4 11.1c-0.7 1.4-17.4 33.4-41.5 55.4z"/>
							</g>
							<g id="&lt;Group&gt;">
								<path id="&lt;Path&gt;" class="s1" d="m2651 2821.7q2.4-13.3 5.4-26.4 2.9-13.2 6.2-26.3c4.4-17.5 9.1-35 16.1-52.1 1.8 18.4 1.1 36.5 0.3 54.5-0.4 9-1 18-1.7 27q-0.9 13.4-2.4 26.8z"/>
							</g>
							<g id="&lt;Group&gt;">
								<path id="&lt;Path&gt;" class="s1" d="m1827.5 3475.7c-1 4.6-3 9.2-5.3 13.7-1.2 2.3-2.5 4.6-4 6.8-1.5 2.2-3.1 4.5-5.1 6.7-1.6-2.5-2.8-5-3.9-7.4-1.1-2.5-2-4.9-2.8-7.4-1.5-4.8-2.8-9.7-3-14.4z"/>
							</g>
						</g>
					</g>
					<g id="&lt;Group&gt;">
						<g id="&lt;Group&gt;">
							<g id="&lt;Group&gt;">
								<path id="&lt;Path&gt;" class="s0" d="m1975.5 2383.8h-54.1c-55.7 0-100.9-45.1-100.9-100.8v-174.7c0-43.6 35.3-78.9 78.9-78.9h76.1z"/>
							</g>
							<g id="&lt;Group&gt;" style="opacity: .3">
								<path id="&lt;Path&gt;" class="s1" d="m1820.5 2192.1v101.3c0 49.9 40.5 90.4 90.5 90.4h64.5v-101.3h-64.5c-50 0-90.5-40.5-90.5-90.4z"/>
							</g>
							<g id="&lt;Group&gt;">
								<path id="&lt;Compound Path&gt;" fill-rule="evenodd" class="s1" d="m1987.6 2395.9h-66.2c-62.3 0-112.9-50.7-112.9-112.9v-174.7c0-50.2 40.8-91 90.9-91h88.2zm-88.2-354.4c-36.8 0-66.8 30-66.8 66.8v174.7c0 49 39.8 88.8 88.8 88.8h42v-330.3z"/>
							</g>
						</g>
						<g id="&lt;Group&gt;">
							<g id="&lt;Group&gt;">
								<path id="&lt;Path&gt;" class="s0" d="m2662.9 2383.8h54.1c55.7 0 100.9-45.1 100.9-100.8v-174.7c0-43.6-35.3-78.9-78.9-78.9h-76.1z"/>
							</g>
							<g id="&lt;Group&gt;" style="opacity: .3">
								<path id="&lt;Path&gt;" class="s1" d="m2817.9 2192.1v101.3c0 49.9-40.5 90.4-90.5 90.4h-64.5v-101.3h64.5c50 0 90.5-40.5 90.5-90.4z"/>
							</g>
							<g id="&lt;Group&gt;">
								<path id="&lt;Compound Path&gt;" fill-rule="evenodd" class="s1" d="m2717 2395.9h-66.2v-378.6h88.2c50.1 0 90.9 40.8 90.9 91v174.7c0 62.2-50.6 112.9-112.9 112.9zm-42-24.1h42c49 0 88.8-39.9 88.8-88.8v-174.7c0-36.9-30-66.8-66.8-66.8h-64z"/>
							</g>
						</g>
						<g id="&lt;Group&gt;">
							<g id="&lt;Group&gt;">
								<path id="&lt;Path&gt;" class="s0" d="m2661.1 2457.7v66.4c0 0-93.9 106.8-341.9 106.8-248 0-341.8-106.8-341.8-106.8v-66.4z"/>
							</g>
							<g id="&lt;Group&gt;" style="opacity: .3">
								<path id="&lt;Path&gt;" class="s1" d="m2319.2 2457.7v145c-248 0-341.8-111.6-341.8-111.6v-33.4z"/>
							</g>
							<g id="&lt;Group&gt;" style="opacity: .3">
								<path id="&lt;Path&gt;" class="s1" d="m2319.2 2457.7v145c248 0 341.9-111.6 341.9-111.6v-33.4z"/>
							</g>
							<g id="&lt;Group&gt;">
								<path id="&lt;Compound Path&gt;" fill-rule="evenodd" class="s1" d="m2319.2 2642.9c-250.6 0-346.9-106.3-350.9-110.9-2-2.2-3-5-3-7.9v-66.4c0-6.7 5.4-12.1 12-12.1h683.8c6.6 0 12 5.4 12 12.1v66.4c0 2.9-1 5.7-3 7.9-3.9 4.6-100.3 110.9-350.9 110.9zm-329.8-123.8c17.7 17 114.6 99.7 329.8 99.7 216.1 0 312.2-82.5 329.8-99.6v-49.5h-659.6z"/>
							</g>
						</g>
						<g id="&lt;Group&gt;">
							<g id="&lt;Group&gt;">
								<path id="&lt;Path&gt;" class="s0" d="m2319.2 2572c557.9 0 420.1-505.5 420.1-505.5-50.7-177.6-215.9-307.1-420.1-307.1-204.2 0-369.4 129.5-420.1 307.1 0 0-137.8 505.5 420.1 505.5z"/>
							</g>
							<g id="&lt;Group&gt;" style="opacity: .3">
								<path id="&lt;Path&gt;" class="s1" d="m2739.3 2066.5c-16.7-58.7-46.1-112.1-85.1-157.3 9.8 20.5 17.9 42 24.2 64.2 0 0 137.8 505.4-420.1 505.4-172.8 0-278.9-48.5-343-115.4 46.9 110 157.6 208.6 403.9 208.6 557.9 0 420.1-505.5 420.1-505.5z"/>
							</g>
							<g id="&lt;Group&gt;">
								<path id="&lt;Compound Path&gt;" fill-rule="evenodd" class="s1" d="m2319.2 2584c-174.6 0-300.4-48.9-374.1-145.4-116.6-152.5-60.1-366.2-57.7-375.3 54-189 227.5-316 431.8-316 204.3 0 377.8 127 431.7 315.9 2.5 9.2 59 222.9-57.6 375.4-73.7 96.5-199.5 145.4-374.1 145.4zm0-812.5c-193.4 0-357.6 119.9-408.5 298.3-0.6 2-55.7 211.3 53.6 354.3 68.9 90.1 188.3 135.8 354.9 135.8 166.6 0 286-45.7 354.9-135.8 109.3-143 54.2-352.3 53.6-354.4-50.9-178.3-215.1-298.2-408.5-298.2z"/>
							</g>
						</g>
						<g id="&lt;Group&gt;">
							<g id="&lt;Group&gt;">
								<path id="&lt;Path&gt;" class="s1" d="m2319.2 2491.1c368.8 0 368.8-245.5 368.8-245.5 0-285.9-368.8-271.7-368.8-271.7 0 0-368.8-14.2-368.8 271.7 0 0 0 245.5 368.8 245.5z"/>
							</g>
							<g id="&lt;Group&gt;" style="opacity: .5">
								<path id="&lt;Path&gt;" class="s0" d="m2319.2 1973.9c0 0-368.8-14.2-368.8 271.7 0 0 0 51.5 35.4 107.3-13.9-36.7-13.9-64.3-13.9-64.3 0-77.3 26.9-132.6 66.2-172.2 5.4-5.4 13.4-7.5 20.6-5.2 23.2 7.3 62.6 2.8 103.5-13.6 42.5-17 75-42.2 85.5-64.1 3.2-6.7 9.4-11.5 16.8-12.4 44.6-5.4 76.2-4.2 76.2-4.2 0 0 238.2-9.2 331.7 135.7-70.1-189.6-353.2-178.7-353.2-178.7z"/>
							</g>
							<g id="&lt;Group&gt;">
								<path id="&lt;Compound Path&gt;" fill-rule="evenodd" class="s1" d="m2319.2 2503.2c-195.5 0-288.6-69.4-332.3-127.6-48-63.9-48.6-127.3-48.6-130 0-75.5 24.9-137.7 74-184.9 107.8-103.7 293.8-99.3 306.9-98.9 13.1-0.5 199.1-4.8 307 98.9 49 47.2 73.9 109.4 73.9 184.9 0 2.7-0.6 66.1-48.5 130-43.8 58.2-136.9 127.6-332.4 127.6zm-7.5-517.4c-35.1 0-192.1 5.1-282.8 92.4-44.1 42.4-66.4 98.8-66.4 167.4 0 0.6 0.8 59.1 44.5 116.6 58.1 76.5 166.1 116.9 312.2 116.9 146.1 0 254.1-40.4 312.2-116.9 43.8-57.5 44.5-116 44.5-116.6 0-68.7-22.3-125-66.5-167.5-102.1-98.2-287.9-92.3-289.7-92.2h-0.5-0.5c-0.2 0-2.6-0.1-7-0.1z"/>
							</g>
						</g>
					</g>
					<g id="&lt;Group&gt;">
						<g id="&lt;Group&gt;">
							<path id="&lt;Path&gt;" class="s0" d="m1944.6 2841.2c0 0-26.1-6.3-54.3-11.2-22.1-3.8-37-27.4-31.4-50.5q0.1-0.6 0.3-1.1c4.9-18.7 22-30.5 40.1-28.5 16.4 1.8 42.5 5.5 65.5 12.7 0 0 43.1 57.1-20.2 78.6z"/>
						</g>
						<g id="&lt;Group&gt;" style="opacity: .3">
							<path id="&lt;Path&gt;" class="s1" d="m1945.6 2804.1c0 0-26.1-6.3-54.3-11.2-12.9-2.2-23.4-11.3-28.7-23-1.5 2.6-2.6 5.5-3.4 8.5q-0.2 0.5-0.3 1.1c-5.6 23.1 9.3 46.7 31.4 50.5 28.2 4.9 54.3 11.2 54.3 11.2 38.9-13.2 37.6-39.8 30.8-58.4-4.8 8.3-14 15.9-29.8 21.3z"/>
						</g>
						<g id="&lt;Group&gt;">
							<path id="&lt;Compound Path&gt;" fill-rule="evenodd" class="s1" d="m1944.6 2853.2q-1.4 0-2.8-0.3c-0.3-0.1-26.1-6.2-53.5-11-13.6-2.4-25.9-10.6-33.7-22.6-8.3-12.6-11-28.1-7.4-42.7l0.3-1.2c6.4-24.4 28.8-40.1 53.1-37.5 18 2 44.3 5.8 67.8 13.1 2.4 0.8 4.5 2.3 6 4.3 1 1.3 23.7 31.9 14.6 61.1-5.1 16.6-18.7 28.8-40.5 36.2q-1.9 0.6-3.9 0.6zm-49.3-91.4c-11.3 0-21.3 7.9-24.5 19.7l-0.1 0.8c-2 8.1-0.5 16.8 4.1 23.8 4.2 6.5 10.5 10.8 17.6 12 22.5 3.9 43.4 8.6 51.5 10.5 12.1-4.7 19.5-11.1 22.1-19.2 3.9-12.6-3.7-28.5-8.8-36.5-20.6-6-43.3-9.3-59.2-11q-1.4-0.1-2.7-0.1z"/>
						</g>
					</g>
					<g id="&lt;Group&gt;">
						<g id="&lt;Group&gt;">
							<path id="&lt;Path&gt;" class="s0" d="m2437.3 2839.3c-44.5 113.5-93.3 238.1-93.3 238.1-134.5-65.2-399.3-110.9-399.3-110.9l-15.9-44.8c14.2-120.9 65.4-241.9 65.4-241.9 132.8-3.3 261.5 35.8 341.7 66.7 51.2 19.8 82.6 36.2 82.6 36.2z"/>
						</g>
						<g id="&lt;Group&gt;" style="opacity: .3">
							<path id="&lt;Path&gt;" class="s1" d="m2437.3 2839.3c-44.5 113.5-93.3 238.1-93.3 238.1-134.5-65.2-399.3-110.9-399.3-110.9l-15.9-44.8c0 0 396.7 86.7 407.1-175.2 51.2 19.8 82.6 36.2 82.6 36.2z"/>
						</g>
						<g id="&lt;Group&gt;">
							<path id="&lt;Compound Path&gt;" fill-rule="evenodd" class="s1" d="m2344 3089.4c-1.8 0-3.6-0.4-5.3-1.2-131.4-63.6-393.4-109.3-396-109.8-4.3-0.7-7.9-3.7-9.3-7.8l-16-44.9c-0.6-1.7-0.8-3.6-0.6-5.4 14.2-121.2 64.2-240.1 66.3-245.2 1.8-4.3 6.1-7.2 10.8-7.3q8.2-0.2 16.4-0.2c211.9 0 405.4 100.1 413.8 104.4 2.7 1.5 4.8 4 5.8 6.9l18.8 56.6c0.9 2.6 0.8 5.5-0.2 8.2-44.4 113.5-93.3 238.1-93.3 238.1-1.2 3.1-3.7 5.6-6.8 6.8-1.4 0.6-2.9 0.8-4.4 0.8zm-390.3-133.5c42.3 7.6 257.7 48 383.8 105.1 13-33.3 51.2-130.7 87-222.1l-15.9-47.6c-30.1-15-214.3-101.8-406.2-99.5-10.9 27.4-49.1 128.3-61.3 228.5z"/>
						</g>
						<g id="&lt;Group&gt;">
							<g id="&lt;Group&gt;">
								<path id="&lt;Path&gt;" class="s1" d="m2199.6 2819.1l-37.6-10.6c-5.7-1.6-9-7.5-7.4-13.2l10.6-37.6c1.6-5.7 7.6-9.1 13.3-7.4l37.6 10.6c5.7 1.6 9 7.5 7.4 13.2l-10.7 37.6c-1.6 5.7-7.5 9-13.2 7.4z"/>
							</g>
							<g id="&lt;Group&gt;">
								<path id="&lt;Path&gt;" class="s1" d="m2289.7 2844.6l-37.6-10.6c-5.7-1.6-9-7.6-7.4-13.3l10.7-37.6c1.6-5.7 7.5-9 13.2-7.4l37.6 10.6c5.7 1.7 9 7.6 7.4 13.3l-10.6 37.6c-1.6 5.7-7.6 9-13.3 7.4z"/>
							</g>
							<g id="&lt;Group&gt;">
								<path id="&lt;Path&gt;" class="s1" d="m2173.8 2906.2l-37.6-10.6c-5.7-1.7-9-7.6-7.4-13.3l10.6-37.6c1.7-5.7 7.6-9 13.3-7.4l37.6 10.6c5.7 1.6 9 7.6 7.4 13.3l-10.6 37.6c-1.6 5.7-7.6 9-13.3 7.4z"/>
							</g>
							<g id="&lt;Group&gt;">
								<path id="&lt;Path&gt;" class="s1" d="m2264 2931.7l-37.6-10.7c-5.7-1.6-9.1-7.5-7.4-13.2l10.6-37.6c1.6-5.7 7.5-9 13.2-7.4l37.6 10.6c5.7 1.6 9.1 7.5 7.4 13.3l-10.6 37.5c-1.6 5.7-7.5 9.1-13.2 7.5z"/>
							</g>
							<g id="&lt;Group&gt;">
								<path id="&lt;Path&gt;" class="s1" d="m2322.6 3035.9c-1.7 0-3.5-0.4-5.1-1.2-142.9-67-387.9-100.7-390.4-101.1l3.3-23.9c9.9 1.4 238.5 32.8 385.5 97.8 13.7-35.7 55.5-144 91.4-229.5l22.3 9.4c-43.4 103-95.2 239.3-95.7 240.7-1.2 3.1-3.6 5.6-6.7 6.9-1.5 0.6-3 0.9-4.6 0.9z"/>
							</g>
							<g id="&lt;Group&gt;">
								<path id="&lt;Path&gt;" class="s1" d="m2332.1 3082.4l-21.2-50.5 23.9-9.9 21.1 50.4z"/>
							</g>
							<g id="&lt;Group&gt;">
								<path id="&lt;Path&gt;" class="s1" d="m2046.3 2942.6l-23.4-5.9 30.3-120.9-30.7-4.8c-3.5-0.6-6.5-2.6-8.4-5.5-1.8-2.9-2.3-6.5-1.3-9.9l34.7-117.6 23.1 6.9-30.8 104.4 30.2 4.7c3.4 0.6 6.3 2.5 8.2 5.3 1.9 2.8 2.5 6.3 1.6 9.6z"/>
							</g>
						</g>
					</g>
					<g id="&lt;Group&gt;">
						<g id="&lt;Group&gt;">
							<path id="&lt;Path&gt;" class="s0" d="m2394.5 2980.5c22 9.9 86.1 41.9 156.1 107.6 19.3 18.1 51 12.9 62.8-10.8q0.4-0.7 0.7-1.4c7.4-15.4 4.1-33.8-8.1-45.8-30.5-29.9-98.6-90.6-183.2-128.5-4.5-2-9.5-2.1-14-0.3-12.6 4.8-33.9 20-24.6 66.1 1.1 5.8 4.9 10.7 10.3 13.1z"/>
						</g>
						<g id="&lt;Group&gt;" style="opacity: .3">
							<path id="&lt;Path&gt;" class="s1" d="m2554.7 3043.4c-70-65.7-134-97.7-156-107.6-5.4-2.4-9.2-7.3-10.4-13.1-0.2-1-0.3-1.9-0.5-2.9-5.4 10.2-8.1 25.2-3.6 47.6 1.1 5.8 4.9 10.7 10.3 13.1 22 9.9 86.1 41.9 156.1 107.6 19.3 18.1 51 12.9 62.8-10.8q0.4-0.7 0.7-1.4c5.7-11.8 5-25.3-1-36.4-14 17.6-41.1 20-58.4 3.9z"/>
						</g>
						<g id="&lt;Group&gt;">
							<path id="&lt;Compound Path&gt;" fill-rule="evenodd" class="s1" d="m2577.9 3111c-13.2 0-25.7-4.9-35.5-14.1-67.9-63.7-129.5-94.9-152.8-105.3-8.9-4-15.3-12.2-17.3-21.8-11.3-56.4 18.7-74.6 32.1-79.8 7.5-2.9 16-2.7 23.3 0.6 85.2 38.1 153.6 98.4 186.8 130.9 15.9 15.6 20.1 39.6 10.5 59.6l-0.8 1.5c-7.2 14.7-20.7 24.7-36.8 27.6q-4.8 0.8-9.5 0.8zm-162.5-198.9q-1.2 0-2.3 0.4c-16.8 6.5-22.7 24.7-17.1 52.5 0.4 2.1 1.7 3.7 3.5 4.5q0 0 0 0c24.4 11 88.8 43.6 159.4 109.8 6.5 6.1 15.3 8.8 24.2 7.1 8.6-1.5 15.7-6.8 19.5-14.5l0.6-1.3c5.2-10.7 2.9-23.5-5.6-31.9-32.1-31.3-98-89.5-179.8-126.1-0.7-0.3-1.6-0.5-2.4-0.5z"/>
						</g>
					</g>
					<g id="&lt;Group&gt;">
						<g id="&lt;Group&gt;">
							<path id="&lt;Path&gt;" class="s1" d="m1741.6 1466.7l3.3 1303.1v2.5l-0.9 2c-12.6 29.4-25.8 58.4-39.5 87.3-6.7 14.5-13.7 28.9-20.7 43.3-7.2 14.3-14.5 28.6-22.3 42.6 4.1-15.5 8.7-30.8 13.5-46.1 4.8-15.3 9.7-30.5 14.9-45.6 10.1-30.4 20.6-60.5 31.7-90.4l-0.8 4.5-3.3-1303.2c0-6.6 5.3-12.1 12-12.1 6.7 0 12.1 5.4 12.1 12.1z"/>
						</g>
						<g id="&lt;Group&gt;">
							<path id="&lt;Path&gt;" class="s1" d="m1730.9 1859.2l-431.6-204.8c-6-2.8-8.5-10-5.7-16 2.9-6.1 10.1-8.6 16.1-5.8l418.5 198.6 273.3-201.1c5.4-4 12.9-2.8 16.9 2.5 3.9 5.4 2.8 12.9-2.6 16.9z"/>
						</g>
						<g id="&lt;Group&gt;">
							<path id="&lt;Path&gt;" class="s1" d="m1729.5 1857.2c-4.7 0-9.2-2.8-11.1-7.5l-127.2-310.6c-2.6-6.1 0.4-13.2 6.6-15.7 6.1-2.5 13.2 0.4 15.7 6.6l127.2 310.6c2.5 6.2-0.4 13.2-6.6 15.7-1.5 0.6-3 0.9-4.6 0.9z"/>
						</g>
						<g id="&lt;Group&gt;">
							<path id="&lt;Path&gt;" class="s1" d="m1744.3 2766.1c4.6 12.8 8.6 25.8 12.4 38.8 3.9 13 7.5 26.1 10.9 39.3 6.8 26.4 13.9 52.6 15.5 80.6-15.1-23.6-24.7-49.1-34.8-74.3-4.9-12.7-9.7-25.4-14.2-38.2-4.5-12.8-8.9-25.7-12.7-38.7-1.9-6.4 1.7-13.1 8.1-15 6.2-1.8 12.7 1.5 14.8 7.5z"/>
						</g>
						<g id="&lt;Group&gt;">
							<g id="&lt;Group&gt;">
								<g id="&lt;Group&gt;">
									<path id="&lt;Path&gt;" class="s2" d="m2204.3 751.6c0 279.8-226.8 506.6-506.5 506.6-279.8 0-506.6-226.8-506.6-506.6 0-279.7 226.8-506.5 506.6-506.5 279.7 0 506.5 226.8 506.5 506.5z"/>
								</g>
								<g id="&lt;Clip Group&gt;">
									<g id="&lt;Group&gt;" clip-path="url(#cp1)">
									</g>
									<g id="&lt;Group&gt;">
										<g id="&lt;Group&gt;">
											<path id="&lt;Path&gt;" class="s3" d="m1270.4 529.6c0 0 263.1-206.1 384.1-160.9 121 45.2-198.5 122.3-345 257.9-146.4 135.7 94.6-95.5 336.8-114.9 242.1-19.4 61.2 68.5 129.2 55.7 68-12.7 162.8-14.4 71.5 29.5-91.3 43.8-204.8 27.3-254.1 55.3-49.3 28.1-246.6 128.6-217.9 130.6 28.7 2 201.4-116.2 249.8-95.7 48.4 20.5 100.5 43.7 246.1-5.1 145.6-48.7 74.3-101.6 155-102 80.8-0.4-10.6 155.3-188.2 162.5-177.7 7.3-223.7-45.3-274.8 18.1-51 63.4-9.5 20.9-87.7 63.2-78.3 42.2-144.2 46.5-158.1 79.5-13.8 33.1 92-24.2 167.7-61.6 75.6-37.3 84.8-93.9 139.1-57.7 54.3 36.2 257.6 44.8 310.2 9.5 52.7-35.2 120.1 40.6-61.1 55.1-181.2 14.5-264.2-3.7-289.4-14.6-25.1-11 25.6 34.2-73.2 93.7-98.7 59.4-216.9 40.3-173.3 98.3 43.6 58 71.5-26.7 203.2-58.2 131.8-31.4 84.7-115.5 171.4-74.6 86.8 40.9 28.4 92.2 144 23.3 115.6-68.9 179.1-99.3 137.5-47.5-41.7 51.9-324.1 213-340.2 103.9 0 0-24.6-17.7-46.4 12.5-21.7 30.3-12.9 53.8-99.4 76.3-86.4 22.4-51.2 105.1-10.3 100.1 40.9-5 215.9-108.6 242.9-96.3 27.1 12.3-11.5 51.9 108.4-21 120-72.9 246.9-123.6 186.9-20.4-59.9 103.2-304.2 128-306.1 71.5-1.8-56.4-0.2 58.5-131.4 81.5-131.2 23.1 500.7 207.1 605.9-133.7 105.1-340.9-325.1-49.4-290.8-73.9 34.4-24.5 104.3-87.5 133.2-145.7 28.9-58.2 24.2-107.5-34.7-79.5-58.8 27.9-63.3 1.2 31.8-55.6 95.1-56.9 114.2-238.4 34.1-185.4-80.1 52.9-64.7 48.3-138.6 94-73.9 45.7-43.4-25.1-13.5-40.4 29.8-15.4 58.1-39.3 31.5-54.2-26.7-15-66.2 31-97.1 31-31 0.1-7.9-32.4 24.9-35.9 32.8-3.5 72.6-54.4 10.3-78.8-62.2-24.4-120.7 89.4-158.4 69.7-37.7-19.7-49-12.7-80.2-9.4-31.2 3.4 6.3-32.8 42.5-26.2 36.1 6.7 107.3-22.4 121.1-60.6 13.8-38.1-36.6-137.5-154.9-100.3-118.2 37.2-338.6 98.1-394.3 237.4z"/>
										</g>
										<g id="&lt;Group&gt;">
											<path id="&lt;Path&gt;" class="s3" d="m1364.5 447.4c14.2-14.3 100.1-87.9 148.4-71.2 48.2 16.7 207.7-108.3 196-70.4-11.8 37.9-227.3 123.6-324.5 199.7-97.1 76-190.6 180.3-101.5 150.3 89.2-30.1 167.6-95.9 211.3-80 43.8 15.9 358.8-122.4 265.9-66.8-93 55.7-302.8 121.3-325.6 174.6-22.9 53.2-49.3 20-23.8-17.2 25.4-37.1-74.2-77.9-91.7 27-17.4 104.8-58 187.2 4.4 164.7 62.3-22.6 133.2-38.6 215.1-79 82-40.3 5.8 30.3-79.2 56.8-85 26.6-167.7 88-165.2 106.6 2.6 18.6 36.6 55.5 116.5 19.7 79.9-35.7 39.5 38.4 146-17.2 106.4-55.6 36.8 14.2-82.2 57.6-118.9 43.4-122.9 74-138.7 51.1-15.7-22.9-172.9-270.9-94.5-470.2"/>
										</g>
									</g>
									<g id="&lt;Group&gt;">
										<g id="&lt;Group&gt;" style="opacity: .3">
											<path id="&lt;Path&gt;" class="s4" d="m1305.9 1072.5c110.8 104.8 267.5 158.6 429.7 132.2 276.1-45 463.5-305.3 418.5-581.4-14.9-91.3-53.4-172.8-108.1-239.4-110.5-104.5-266.5-158.3-428.1-132.5q0.1 0 0.1 0c57.2 23.8 107.6 62.1 145.6 111.2 58.4 52.4 99.9 124.2 113.5 207.7 31.7 194.2-100.1 377.4-294.4 409-133.6 21.8-261.9-33.8-339.3-133.8q0 0 0 0c-18.8-16.9-35.8-35.8-50.7-56.5q-0.7-9.4-1.1-18.8c0.8 20.8 2.8 41.8 6.2 62.9 17.7 108.6 68.8 203.3 140.9 275.7-11.5-11.5-22.4-23.6-32.8-36.3z"/>
										</g>
									</g>
								</g>
								<g id="&lt;Group&gt;" style="opacity: .6">
									<path id="&lt;Path&gt;" class="s0" d="m1735.4 274.1c108.1 0 208.2 33.9 290.4 91.6-88.4-75.2-202.9-120.6-328-120.6-279.8 0-506.6 226.8-506.6 506.5 0 77.2 17.3 150.3 48.1 215.7 28.2 53.6 65.7 101.5 110.4 141.6-75.3-88.4-120.8-203-120.8-328.2 0-279.8 226.7-506.6 506.5-506.6z"/>
								</g>
								<g id="&lt;Group&gt;">
									<path id="&lt;Compound Path&gt;" fill-rule="evenodd" class="s1" d="m1697.8 1273.1c-287.6 0-521.5-233.9-521.5-521.5 0-287.5 233.9-521.4 521.5-521.4 287.5 0 521.4 233.9 521.4 521.4 0 287.6-233.9 521.5-521.4 521.5zm0-1013.1c-271.1 0-491.7 220.5-491.7 491.6 0 271.1 220.6 491.7 491.7 491.7 271.1 0 491.6-220.6 491.6-491.7 0-271.1-220.5-491.6-491.6-491.6z"/>
								</g>
							</g>
							<g id="&lt;Group&gt;">
								<g id="&lt;Group&gt;">
									<path id="&lt;Path&gt;" class="s5" d="m2491.6 1082.5c23.5 48.5 37.5 99.2 42.6 149.9 18.6 182.6-76.6 365.5-251.4 450-191.4 92.5-416.1 37.1-544.4-121.4-21.3-26.3-40.1-55.6-55.5-87.5-7.6-15.8-14.3-31.9-19.9-48.1-74.2-212.5 21.3-451.4 228.7-551.7 211.6-102.3 463.8-23.8 581.6 174.6q9.8 16.5 18.3 34.2z"/>
								</g>
								<g id="&lt;Group&gt;">
									<path id="&lt;Path&gt;" class="s6" d="m2491.6 1082.5c23.5 48.5 37.5 99.2 42.6 149.9-35.6 40.3-91.4 91.5-155.4 106-110.3 25-202.2 113.7-238.9 133.3-36.6 19.5-218.2 108.9-278 84.7-33.7-13.7-85.1-5.3-123.5 4.6-21.3-26.3-40.1-55.6-55.5-87.5-7.6-15.8-14.3-31.9-19.9-48.1 30.8-16.2 88.2-40.5 130.8-24 61.1 23.7 185.3-24 273.4-102.1 88.2-78.1 195.4-102.1 259.4-105.3 54.8-2.7 118.8-96.9 146.7-145.7q9.8 16.5 18.3 34.2z"/>
								</g>
								<g id="&lt;Group&gt;" style="opacity: .3">
									<path id="&lt;Path&gt;" class="s1" d="m2534.2 1232.4c-5.1-50.7-19.1-101.4-42.6-149.9q-8.5-17.7-18.3-34.2c-48.9-82.4-121-144-203.7-180.7 38.7 32.1 72.5 71 99.4 116.2q9.8 16.5 18.3 34.1c23.5 48.5 37.5 99.2 42.6 149.9 18.6 182.6-76.6 365.5-251.4 450-123.7 59.8-261.3 57.7-377.8 6.1 131.2 108.6 318.7 137.5 482.1 58.5 174.8-84.5 270-267.4 251.4-450z"/>
								</g>
								<g id="&lt;Group&gt;" style="opacity: .7">
									<path id="&lt;Path&gt;" class="s0" d="m1891.7 873.7c-207.4 100.3-302.9 339.2-228.7 551.7 5.6 16.2 12.3 32.3 19.9 48.1 15.4 31.9 34.2 61.2 55.5 87.5 45.5 56.3 103.2 99.4 167.2 127.7-48.1-27.2-91.6-63.5-127.5-107.8-21.3-26.4-40-55.6-55.4-87.5-7.7-15.8-14.4-31.9-20-48.2-31.4-89.9-32.3-184.6-7.2-271.5 2-7.1 7.8-12.4 15-13.9 22-4.7 51.9-30.3 76-67.3 25.9-39.9 36.8-80.6 29.1-101.5-2.7-7.6-0.9-16.1 5-21.6 32.1-30 69.2-55.7 110.9-75.9 123.4-59.6 260.5-57.7 376.9-6.4-123.9-69.9-278.9-80.1-416.7-13.4z"/>
								</g>
								<g id="&lt;Group&gt;">
									<path id="&lt;Compound Path&gt;" fill-rule="evenodd" class="s1" d="m2087.6 1739.8c-51.1 0-102.4-8.6-152.1-25.9-116.4-40.5-210.1-123.9-263.7-234.9-53.7-111-61-236.3-20.4-352.7 40.5-116.5 124-210.1 234.9-263.8 111-53.7 236.3-60.9 352.7-20.4 116.5 40.5 210.1 124 263.8 235 53.7 111 60.9 236.2 20.4 352.7-40.5 116.4-124 210.1-235 263.8-63.6 30.7-131.9 46.2-200.6 46.2zm-0.7-898.7c-64.9 0-129.5 14.6-189.7 43.7-105.1 50.8-184 139.5-222.4 249.6-38.3 110.2-31.5 228.7 19.3 333.7 50.8 105.1 139.4 184 249.6 222.4 110.2 38.3 228.7 31.5 333.7-19.3 105-50.8 184-139.4 222.3-249.6 38.4-110.2 31.5-228.7-19.2-333.7-50.8-105-139.5-184-249.6-222.3-47.1-16.4-95.6-24.5-144-24.5z"/>
								</g>
							</g>
							<g id="&lt;Group&gt;">
								<g id="&lt;Group&gt;">
									<path id="&lt;Path&gt;" class="s7" d="m1578.3 1332.7c-10.2 82.2-42.9 160.6-95 225.9-40.6 50.8-92.9 93.5-155.4 123.8-80.1 38.7-166 51.5-248.2 41.7-114.4-13.6-221.6-70.9-296.1-163.1-21.4-26.3-40.1-55.6-55.6-87.5-7.6-15.8-14.3-31.9-19.9-48.2-38.5-110.3-31.3-227.8 13.7-329.3 30.3-68.4 77.6-129.4 139.5-176.2 23.2-17.5 48.4-33 75.6-46.2 59.9-28.9 123-43.3 185.4-44.7 158.1-3.5 311.7 77.1 396.1 219.4 6.6 11 12.7 22.4 18.4 34.2 23.5 48.5 37.4 99.2 42.6 149.9 3.4 33.6 3 67.2-1.1 100.3z"/>
								</g>
								<g id="&lt;Group&gt;">
									<path id="&lt;Path&gt;" class="s8" d="m1578.3 1332.7c-33.3 27.3-64.1 49.2-87.7 59.7-100.1 44.7-170.4-121.3-191.6-263.9-21.3-142.7-153.3-74.5-195.9-152.4-42.5-77.8 19.2-147.2 19.2-147.2 158.1-3.5 311.7 77.1 396.1 219.4 6.6 11 12.7 22.4 18.4 34.2 23.5 48.5 37.4 99.2 42.6 149.9 3.4 33.6 3 67.2-1.1 100.3z"/>
									<path id="&lt;Compound Path&gt;" fill-rule="evenodd" class="s1" d="m1457.7 1409.8c-13.9 0-27.7-3.7-41-11-70.3-38.5-112.6-168.9-127.5-268.9-11.5-76.9-56.3-86.7-103.7-97.2-35.1-7.7-71.3-15.7-91.1-51.8-45.4-83 19.8-157.9 20.4-158.6l2.9-3.3 4.3-0.1c165.7-3.7 320.7 82.3 404.9 224.3 6.6 11 12.9 22.8 18.8 34.9 23.5 48.6 38.1 100.2 43.6 153.3 3.4 33.9 3 68.4-1.2 102.5l-0.4 3.9-3.1 2.5c-37.3 30.6-67.6 51.2-90 61.2-12.4 5.5-24.7 8.3-36.9 8.3zm-330.7-571.1c-10.9 14-49.3 70.3-15.1 132.7 15.4 28.2 44.3 34.5 77.9 41.9 49.4 10.9 105.5 23.2 119 113.7 15.4 103 57.6 221.6 117.4 254.4 19.6 10.7 39.3 11.3 60.3 2 20.2-9.1 47.9-27.8 82.4-55.9 3.6-31.3 3.8-63 0.6-94.1-5.2-50.8-19.2-100.1-41.6-146.6-5.7-11.6-11.7-22.9-18-33.4-79.8-134.6-226.3-216.4-382.9-214.7z"/>
								</g>
								<g id="&lt;Group&gt;">
									<path id="&lt;Path&gt;" class="s8" d="m953.6 1549.4c-23.9-65.4-140.5-169.3-156.5-212.3-15.9-43.1-41.5-22.4-67-73.5-25.5-51.1-8.3-167.6-8.3-167.6 30.3-68.4 77.6-129.4 139.5-176.2 96.1-51.6 116.2 46.9 133.8 126.7 17.5 79.8-87.8 124.5-3.2 258.6 84.6 134.2-14.4 309.7-38.3 244.3z"/>
									<path id="&lt;Compound Path&gt;" fill-rule="evenodd" class="s1" d="m968.5 1573.5q-1.2 0-2.3-0.1c-6.9-0.7-16.2-4.9-21.9-20.6-12.7-34.5-53.9-82.1-90.3-124-31.4-36.2-58.4-67.3-66.2-88.3-6.6-17.7-14.2-22.1-24.9-28.2-12.2-6.9-27.4-15.5-41.7-44.2-23.8-47.7-12.9-145.1-9.9-168.5l-1.3-1.4 2.7-6.2c31.6-71.2 80.9-133.5 142.6-180.1l1.3-0.8c30.7-16.5 57.2-19.9 78.9-9.9 42.1 19.3 56.2 83.3 68.6 139.8l0.7 3.4c7.3 33.2-4.7 61-16.3 87.9-18.8 43.5-38.1 88.4 11.8 167.5 57.6 91.2 33.5 198.6 4.8 244.9-11.8 18.9-24.4 28.8-36.6 28.8zm-5.6-27.5c1.9 5.1 4 7.5 5.3 7.6 2.9 0.3 10.9-4.7 20-19.4 26.2-42.2 48-140.2-4.7-223.8-55.5-88-33.1-140-13.3-185.9 11.4-26.3 21.1-48.9 15.2-75.8l-0.7-3.4c-11.5-52-24.4-110.9-57.5-126.1-15.8-7.2-35.6-4.3-60.5 9-58.4 44.3-105.1 103.1-135.2 170.4-1.6 11.7-15.1 115.4 7.5 160.6 11.6 23.3 22.4 29.4 33.7 35.9 12.1 6.9 24.7 14 33.7 38.5 6.6 17.6 33.8 48.9 62.6 82.1 37.5 43.3 80 92.4 93.9 130.3z"/>
								</g>
								<g id="&lt;Group&gt;">
									<path id="&lt;Path&gt;" class="s0" d="m1483.3 1558.6c-40.6 50.8-92.9 93.5-155.4 123.8-80.1 38.7-166 51.5-248.2 41.7 9.3-17.9 25.3-35.5 52.8-39 59-7.4 57.9-35.1 87.7-61.7 29.8-26.6 76.2-2.2 114.7-13.9 31.9-9.6 71.7-82.7 148.4-50.9z"/>
									<path id="&lt;Compound Path&gt;" fill-rule="evenodd" class="s1" d="m1132.7 1734.7c-18 0-36-1-53.9-3.2l-10.7-1.3 4.9-9.5c13-24.9 33.3-39.8 58.5-43 38.5-4.8 49-18.4 62.1-35.6 5.8-7.5 12.3-16 21.6-24.3 19.8-17.6 45.2-15.6 69.8-13.6 16.2 1.3 33 2.7 47.7-1.8 8.1-2.4 17.6-10.3 28.6-19.5 28.2-23.3 66.7-55.3 124.9-31.2l9.1 3.8-6.2 7.7c-42.6 53.4-95.8 95.8-157.9 125.9-62.4 30.1-130.1 45.6-198.5 45.6zm-40.6-16.8c79.8 7.4 159.9-7.1 232.6-42.2 56.9-27.6 106.1-65.8 146.2-113.7-44.6-13.6-75.2 11.7-100.1 32.4-12.2 10.2-22.9 19-33.7 22.3-17.5 5.2-35.7 3.8-53.3 2.4-23.4-1.9-43.6-3.6-58.6 9.8-8.3 7.4-14.1 15-19.7 22.3-14.1 18.3-27.4 35.7-72.1 41.3-17.1 2.2-30.9 10.7-41.3 25.4z"/>
								</g>
								<g id="&lt;Group&gt;" style="opacity: .3">
									<path id="&lt;Path&gt;" class="s1" d="m1579.4 1232.4c-5.2-50.7-19.2-101.4-42.6-149.9q-8.5-17.7-18.4-34.2c-48.9-82.4-121-144-203.7-180.7 38.7 32.1 72.6 71 99.4 116.2q9.9 16.5 18.4 34.1c23.4 48.5 37.4 99.2 42.6 149.9 18.6 182.6-76.6 365.5-251.4 450-123.8 59.8-261.4 57.7-377.9 6 131.2 108.7 318.8 137.6 482.2 58.6 174.8-84.6 270-267.4 251.4-450z"/>
								</g>
								<g id="&lt;Group&gt;" style="opacity: .7">
									<path id="&lt;Path&gt;" class="s0" d="m936.9 873.6c-207.5 100.4-302.9 339.3-228.8 551.8 5.6 16.2 12.3 32.3 20 48.1 15.4 31.9 34.1 61.2 55.5 87.5 45.5 56.3 103.2 99.4 167.2 127.7-48.2-27.2-91.6-63.5-127.5-107.8-21.4-26.4-40.1-55.6-55.5-87.5-7.7-15.8-14.3-31.9-19.9-48.2-31.4-89.9-32.3-184.6-7.3-271.5 2.1-7.1 7.8-12.4 15.1-13.9 21.9-4.7 51.9-30.3 75.9-67.3 25.9-39.9 36.9-80.6 29.2-101.6-2.8-7.5-1-16 4.9-21.5 32.2-30 69.3-55.7 110.9-75.9 123.4-59.7 260.6-57.7 376.9-6.4-123.9-70-278.9-80.1-416.6-13.5z"/>
								</g>
								<g id="&lt;Group&gt;">
									<path id="&lt;Compound Path&gt;" fill-rule="evenodd" class="s1" d="m1132.8 1739.8c-51.1 0-102.4-8.6-152.1-25.9-116.4-40.5-210.1-124-263.8-235-110.8-229.1-14.5-505.6 214.6-616.4 111-53.7 236.2-60.9 352.7-20.4 116.4 40.5 210.1 124 263.8 235 53.6 111 60.9 236.2 20.3 352.7-40.5 116.4-123.9 210.1-234.9 263.7-63.7 30.8-132 46.3-200.6 46.3zm-0.7-898.7c-65 0-129.6 14.6-189.8 43.7-216.8 104.9-307.9 366.5-203 583.3 50.7 105.1 139.4 184 249.6 222.4 110.1 38.3 228.6 31.5 333.7-19.3 105-50.8 183.9-139.4 222.3-249.6 38.3-110.2 31.5-228.7-19.3-333.7-50.8-105-139.4-184-249.6-222.3-47-16.4-95.6-24.5-143.9-24.5z"/>
								</g>
							</g>
							<g id="&lt;Group&gt;">
								<g id="&lt;Group&gt;">
									<g id="&lt;Group&gt;">
										<path id="&lt;Path&gt;" class="s9" d="m1994.2 1152.3c0 244.9-198.5 443.4-443.3 443.4-244.9 0-443.4-198.5-443.4-443.4 0-244.9 198.5-443.4 443.4-443.4 244.8 0 443.3 198.5 443.3 443.4z"/>
									</g>
									<g id="&lt;Group&gt;">
										<path id="&lt;Path&gt;" class="s10" d="m1917.8 1286.2c-115.1-44.1-226.2-98.1-341.9-141-101.3-37.6-198-86.4-292-139.6-40.3-22.8-80.1-46.4-119.8-70.3-35.2 62.8-55.7 134.9-56.6 211.8 12.2 5.3 24.4 10.6 36.6 15.9 169.8 74.1 342.8 141.9 521.5 191.2 80.9 22.3 163.9 49 248.3 52.7 22.1-31.4 40.2-65.9 53.6-102.6q-24.9-8.6-49.7-18.1z"/>
									</g>
									<g id="&lt;Group&gt;">
										<path id="&lt;Path&gt;" class="s10" d="m1200.4 880.7c81.7 49 164.1 96.9 249.7 138.8 98.4 48.1 202.1 83.5 302.6 126.6 76.9 33.1 153.6 67.6 232.6 95.4 5.9-28.8 8.9-58.6 8.9-89.2 0-31.2-3.2-61.7-9.3-91.1-82.3-18.4-162.1-47.3-242.1-73.7-109-36-218.4-70.7-326.4-109.9-52-18.8-103.2-39.4-155.9-56-1.2-0.4-2.4-0.7-3.7-1.1-20.6 18.3-39.5 38.4-56.4 60.2z"/>
									</g>
									<g id="&lt;Group&gt;">
										<path id="&lt;Path&gt;" class="s10" d="m1619.3 1409.2c-92.5-26.7-183.5-58.2-273.4-92.5-78.6-30-155.9-62.9-233.2-96 32.9 212.4 216.5 375 438.2 375 121.4 0 231.4-48.9 311.5-128-82.5-10.6-163.6-35.5-243.1-58.5z"/>
									</g>
									<g id="&lt;Group&gt;">
										<g id="&lt;Group&gt;" style="opacity: .3">
											<path id="&lt;Path&gt;" class="s4" d="m1895.6 1389.1q0 0 0 0c-60.1 34.3-129.6 54-203.7 54-227.7 0-412.3-184.6-412.3-412.3 0-117.3 49-223 127.6-298.1-26.6 9.1-51.9 20.7-75.9 34.4 13.6-7.8 27.8-14.9 42.3-21.3-134.7 76.1-225.7 220.5-225.7 386.3 0 244.9 198.5 443.4 443.4 443.4 63.1 0 123.2-13.2 177.5-37-19.6 11.1-40.2 20.7-61.5 28.7 98.7-37.2 180.6-108.6 231.3-199.8-13.9 8.1-28.2 15.3-43 21.7z"/>
										</g>
									</g>
									<g id="&lt;Group&gt;">
										<path id="&lt;Path&gt;" class="s10" d="m1400.3 802.2c106.9 40.1 215.4 75.7 324.1 110.7 79.3 25.5 157.9 54.7 238.6 75.5-65.2-163.7-225.2-279.5-412.1-279.5-84.3 0-163.1 23.5-230.1 64.3 26.6 9.3 53 19.1 79.5 29z"/>
									</g>
									<g id="&lt;Group&gt;" style="opacity: .6">
										<path id="&lt;Path&gt;" class="s0" d="m1742.6 757.2c117 79.8 193.8 214.2 193.8 366.5 0 244.9-198.5 443.4-443.4 443.4-63.9 0-124.7-13.6-179.6-37.9 71.1 48.3 156.8 76.6 249.2 76.6 244.9 0 443.4-198.5 443.4-443.4 0-180.8-108.3-336.2-263.4-405.2z"/>
									</g>
									<g id="&lt;Group&gt;">
										<path id="&lt;Compound Path&gt;" fill-rule="evenodd" class="s1" d="m1550.9 1608.1c-251.4 0-455.8-204.5-455.8-455.8 0-251.3 204.4-455.8 455.8-455.8 251.3 0 455.8 204.5 455.8 455.8 0 251.3-204.5 455.8-455.8 455.8zm0-886.8c-237.7 0-431 193.4-431 431 0 237.6 193.3 431 431 431 237.6 0 430.9-193.4 430.9-431 0-237.6-193.3-431-430.9-431z"/>
									</g>
								</g>
								<g id="&lt;Group&gt;">
									<g id="&lt;Group&gt;">
										<path id="&lt;Path&gt;" class="s11" d="m1903.3 874.1c85.8-7.6 146.3 6.5 164.9 44.9 42.4 87.7-150.6 268.8-431.2 404.5-280.5 135.6-542.3 174.5-584.7 86.8-18.4-38.1 7.5-93.8 65.8-155.8l-10.4-109.9c-181.9 144.5-278.1 294.3-231.8 390 70.1 144.8 440.1 110.8 826.5-76 386.4-186.9 642.8-455.8 572.7-600.7-46.2-95.6-223.3-113.3-449.5-60.4z"/>
									</g>
									<g id="&lt;Group&gt;">
										<g id="&lt;Group&gt;" style="opacity: .3">
											<path id="&lt;Path&gt;" class="s1" d="m2275.1 857.9c-5.1-10.7-12.1-20.4-20.4-29.1 53.3 147-200 407.6-577.2 590-357.7 173-701.3 215-806 105.3 1.3 3.6 2.8 7.1 4.4 10.5 70.1 144.8 440.1 110.8 826.5-76 386.4-186.9 642.8-455.8 572.7-600.7z"/>
										</g>
									</g>
									<g id="&lt;Group&gt;">
										<g id="&lt;Group&gt;" style="opacity: .7">
											<path id="&lt;Path&gt;" class="s0" d="m2282.4 877.6c-1.8-6.8-4.2-13.3-7.3-19.7-46.2-95.6-223.3-113.3-449.5-60.4l36.5 35.9c201.5-44.4 361.5-31.5 420.3 44.2z"/>
										</g>
										<g id="&lt;Group&gt;" style="opacity: .7">
											<path id="&lt;Path&gt;" class="s0" d="m1112.6 1196.4l-4.9-51.8c-181.9 144.5-278.1 294.3-231.8 390 3.5 7.1 7.7 13.9 12.6 20.2-25.2-93 63.5-227.1 224.1-358.4z"/>
										</g>
									</g>
									<g id="&lt;Group&gt;">
										<path id="&lt;Compound Path&gt;" fill-rule="evenodd" class="s1" d="m1099.8 1636.8c-122.1 0-204.5-33.5-235.1-96.8-47.7-98.7 40.2-250.2 235.2-405.1l18-14.2 13.1 138.2-3.8 4.1c-56.4 59.9-79 110.3-63.7 141.9 34.4 71.3 271 51.1 568.1-92.6 297.2-143.7 459.9-316.6 425.4-387.9-15.4-31.8-69.6-45.3-152.6-38l-5.7 0.5-97.9-96.4 22-5.1c242.5-56.7 415.8-31.6 463.5 67.1 36.3 75.1-5.4 181.1-117.4 298.6-109.2 114.5-272.9 227.6-461.1 318.6-188.2 91-378.6 149.1-536.2 163.6-25.2 2.3-49.2 3.5-71.8 3.5zm-2.3-468c-170.3 140-250.7 277-210.4 360.4 31 64.1 133.9 93 282.3 79.4 154.6-14.2 342-71.5 527.6-161.2 185.5-89.8 346.7-201.1 453.9-313.5 102.9-107.8 144.1-206.4 113.1-270.6-40.4-83.3-197.8-105.3-413.5-58.7l57.5 56.6c92.1-7.2 151.3 10.9 171.4 52.4 23 47.7-11.5 118.3-97.2 198.7-82.3 77.2-203 156.2-339.8 222.3-136.7 66.2-273.6 111.7-385.2 128.3-116.3 17.3-193 0.5-216.1-47.2-19.9-41.3 2.2-98.4 64.1-165.6z"/>
									</g>
								</g>
							</g>
						</g>
					</g>
					<g id="&lt;Group&gt;">
						<g id="&lt;Group&gt;">
							<g id="&lt;Group&gt;">
								<path id="&lt;Path&gt;" class="s0" d="m1818.5 2639.9c-14.8 5.2-28.1 4.7-28.1 4.7 0 0-40.2-51.8-13-127.4 0 0 14.1-3.9 30.6-2 21.1 2.5 46 14.5 49.7 56.8 3.8 43.2-19.1 60.8-39.2 67.9z"/>
							</g>
							<g id="&lt;Group&gt;" style="opacity: .3">
								<path id="&lt;Path&gt;" class="s1" d="m1818.5 2639.9c-14.8 5.2-28.1 4.7-28.1 4.7 0 0-40.2-51.8-13-127.4 0 0 14.1-3.9 30.6-2 0 0 9.9 36.3 0 59.6 0 0 24.7 31.9 10.5 65.1z"/>
							</g>
							<g id="&lt;Group&gt;">
								<path id="&lt;Compound Path&gt;" fill-rule="evenodd" class="s1" d="m1791.2 2656.7q-1 0-1.2 0l-5.7-0.2-3.4-4.5c-1.9-2.3-44-58-14.9-138.9l2.2-5.9 6-1.6c1.5-0.5 38.8-10.5 67 9.1 16.7 11.6 26.3 30.5 28.5 56.2 2.3 26-3.8 46.9-18.1 62-21.4 22.6-53.6 23.8-60.4 23.8zm-4.6-129c-16.5 52.8 2 91.3 10 104.6 9-0.8 26.2-4 37.5-16.1 9.4-9.9 13.2-24.4 11.6-43.2-1.6-18.2-7.7-31.1-18.2-38.4-13.4-9.4-31.6-8.3-40.9-6.9z"/>
							</g>
						</g>
						<g id="&lt;Group&gt;">
							<g id="&lt;Group&gt;">
								<path id="&lt;Path&gt;" class="s0" d="m1724.7 2488.4c0 0-123.1-12.9-85.3 93.1 0 0-34.6 40.8 6.2 89.4 0 0-43.4 84.6 69.2 90.4 28 1.5 55.9-8.3 74.9-28.9 16.4-17.7 25-42.3-6.6-70.3 0 0 27.4-43.9-8.2-81.7 0 0 40.8-78-50.2-92z"/>
							</g>
							<g id="&lt;Group&gt;" style="opacity: .3">
								<path id="&lt;Path&gt;" class="s1" d="m1783.1 2662.1c0 0 27.4-43.9-8.2-81.7 0 0 40.8-78-50.2-92 0 0-36.1-3.8-63.2 9.6q0.5 0 0.5 0c91 14 50.1 92.1 50.1 92.1 35.7 37.7 8.3 81.7 8.3 81.7 31.5 27.9 23 52.6 6.6 70.3-7 7.5-15.2 13.6-24.1 18.2 3.7 0.4 7.7 0.8 11.9 1 28 1.5 55.9-8.3 74.9-28.9 16.4-17.7 25-42.3-6.6-70.3z"/>
							</g>
							<g id="&lt;Group&gt;">
								<path id="&lt;Compound Path&gt;" fill-rule="evenodd" class="s1" d="m1720.3 2773.5q-3 0-6.1-0.1c-40.9-2.1-68.2-14.6-81-36.9-13.7-23.7-6.4-50.9-1.5-63.7-28.1-38.2-18-74.7-5.7-93.4-9.7-30.9-7.4-55.7 7-74 27.9-35.4 90.3-29.3 93-29l0.5 0.1c31.6 4.8 52.8 17.5 63.1 37.7 12.1 24 4.4 51.1-0.6 64.1 22.6 29 17.5 61.9 9 81.4 11.6 12.2 17.8 25.1 18.4 38.4 0.8 14.7-5.2 29-17.8 42.6-19.6 21-47.8 32.8-78.3 32.8zm-7.5-273.6c-18.3 0-47.7 3.7-60.9 20.5-9.8 12.5-10.2 31.7-1.1 57l2.3 6.6-4.5 5.3c-2.8 3.3-26.7 34.7 6.2 73.9l5.2 6.1-3.7 7.1c-0.1 0.3-13.9 28-2.2 48.2 10.7 18.3 39.2 23.5 61.3 24.7 25.7 1.3 49.5-7.8 65.5-25.1 8-8.6 11.8-17 11.4-24.9-0.4-9-6.2-18.4-17.2-28.1l-7.6-6.8 5.4-8.7c0.9-1.4 21.8-36.7-6.8-67l-5.9-6.2 4-7.7c0.1-0.2 14.5-28.7 3.8-49.8-6.5-12.7-21.6-21-44.8-24.6-2.7-0.3-6.3-0.5-10.4-0.5z"/>
							</g>
							<g id="&lt;Group&gt;">
								<path id="&lt;Path&gt;" class="s1" d="m1707 2608.7c-41.6 0-71.4-15.6-73.3-16.6l11.4-21.3c2.4 1.3 60.2 31.1 124.3-1.1l10.9 21.5c-26.1 13.2-51.4 17.5-73.3 17.5z"/>
							</g>
							<g id="&lt;Group&gt;">
								<path id="&lt;Path&gt;" class="s1" d="m1703.2 2698.3c-38.8 0-62.9-16.4-64.5-17.5l13.8-19.8-6.9 9.9 6.9-9.9c2 1.4 51.5 34.2 124.5-9.2l12.3 20.7c-33 19.7-62.3 25.8-86.1 25.8z"/>
							</g>
						</g>
					</g>
				</g>
			</g>
		</g>
	</g>
</svg>